<?xml version="1.0" standalone="no"?>
<!DOCTYPE svg PUBLIC "-//W3C//DTD SVG 20010904//EN"
 "http://www.w3.org/TR/2001/REC-SVG-20010904/DTD/svg10.dtd">
<svg version="1.0" xmlns="http://www.w3.org/2000/svg"
 width="500.000000pt" height="499.000000pt" viewBox="0 0 500.000000 499.000000"
 preserveAspectRatio="xMidYMid meet">

<g transform="translate(0.000000,499.000000) scale(0.100000,-0.100000)"
fill="#000000" stroke="none">
<path d="M2342 4680 c0 -14 2 -19 5 -12 2 6 2 18 0 25 -3 6 -5 1 -5 -13z"/>
<path d="M2270 4681 c0 -5 9 -7 20 -4 11 3 20 7 20 9 0 2 -9 4 -20 4 -11 0
-20 -4 -20 -9z"/>
<path d="M2328 4643 c12 -2 30 -2 40 0 9 3 -1 5 -23 4 -22 0 -30 -2 -17 -4z"/>
<path d="M2410 4621 c0 -6 12 -16 26 -21 28 -11 24 -30 -7 -30 -12 0 -17 -4
-13 -11 3 -6 14 -9 24 -6 12 3 20 -2 23 -14 5 -20 39 -27 35 -8 -2 6 18 13 47
15 66 7 73 16 8 12 -29 -2 -55 -7 -59 -11 -14 -13 -24 -7 -24 16 0 16 3 18 9
9 7 -11 9 -11 14 1 3 10 14 13 31 10 16 -3 26 -1 26 6 0 7 -4 10 -8 7 -8 -5
-70 11 -114 29 -11 4 -18 3 -18 -4z"/>
<path d="M2818 4583 c-30 -23 -31 -25 -8 -19 14 3 30 6 35 6 6 0 3 4 -5 10 -9
6 6 7 45 4 67 -5 70 0 8 14 -38 9 -46 7 -75 -15z"/>
<path d="M2320 4565 c-11 -13 -10 -14 4 -9 9 3 16 10 16 15 0 13 -6 11 -20 -6z"/>
<path d="M2700 4571 c0 -5 7 -11 15 -15 8 -3 15 -1 15 3 0 5 -7 11 -15 15 -8
3 -15 1 -15 -3z"/>
<path d="M2921 4554 c10 -13 10 -17 0 -24 -9 -5 -10 -10 -3 -14 6 -4 15 1 20
10 8 14 10 13 10 -9 0 -23 -3 -25 -26 -16 -30 12 -52 5 -52 -15 0 -7 -10 -16
-22 -19 -25 -7 -41 0 -32 15 4 7 9 6 14 -2 5 -7 14 0 28 23 19 33 19 34 1 30
-30 -8 -58 -56 -63 -107 -5 -55 12 -62 37 -13 l16 32 -5 -45 c-4 -31 -3 -41 4
-31 8 11 11 9 15 -10 l4 -24 2 25 c1 20 6 25 26 25 30 0 33 -11 5 -20 -11 -4
-17 -11 -14 -17 4 -6 9 -6 13 -1 11 17 42 23 63 12 16 -9 19 -8 13 3 -3 7 2 3
13 -9 18 -21 21 -21 33 -6 12 14 12 16 -1 8 -13 -8 -13 -7 -1 8 14 18 26 24
17 8 -3 -5 3 -11 15 -14 25 -7 52 39 31 52 -7 4 -10 14 -7 23 4 10 -4 18 -27
24 -25 7 -34 16 -36 35 -2 20 4 28 29 40 l33 16 -48 12 c-32 8 -52 8 -60 2 -7
-6 -17 -6 -26 -1 -23 15 -34 12 -19 -6z m83 -29 c-4 -8 -10 -12 -15 -9 -14 8
-10 24 6 24 9 0 12 -6 9 -15z m-24 -45 c0 -5 -8 -10 -17 -10 -15 0 -16 2 -3
10 19 12 20 12 20 0z m-65 -20 c3 -6 -1 -7 -9 -4 -18 7 -21 14 -7 14 6 0 13
-4 16 -10z m129 -16 c22 -8 20 -20 -3 -20 -11 0 -18 3 -15 7 2 4 -2 10 -8 12
-9 4 -9 6 -1 6 6 1 18 -2 27 -5z m-67 -60 c-3 -3 -12 -4 -19 -1 -8 3 -5 6 6 6
11 1 17 -2 13 -5z"/>
<path d="M2624 4549 c-3 -5 1 -9 10 -9 8 0 16 -4 18 -9 2 -5 8 -3 15 4 9 10 7
14 -13 18 -13 2 -27 0 -30 -4z"/>
<path d="M2756 4534 c-5 -14 -4 -15 9 -4 17 14 19 20 6 20 -5 0 -12 -7 -15
-16z"/>
<path d="M2675 4514 c-10 -16 -13 -29 -7 -33 5 -3 12 -15 15 -26 2 -11 4 -3 4
18 0 25 6 42 19 52 16 12 17 14 3 15 -9 0 -24 -12 -34 -26z"/>
<path d="M2726 4523 c-6 -14 -5 -15 5 -6 7 7 10 15 7 18 -3 3 -9 -2 -12 -12z"/>
<path d="M2530 4520 c0 -5 -3 -9 -7 -9 -12 3 -75 -23 -70 -27 2 -3 16 0 31 5
17 7 26 7 26 1 0 -6 -8 -10 -18 -10 -26 0 -34 -11 -20 -27 9 -12 9 -14 -3 -11
-8 1 -27 -7 -42 -19 l-28 -22 40 -12 c22 -7 38 -16 35 -20 -3 -5 3 -9 13 -9
14 0 15 -2 5 -9 -12 -7 -11 -14 2 -39 9 -17 16 -40 16 -52 0 -12 4 -19 9 -16
4 3 6 -5 4 -18 -3 -13 0 -34 7 -46 6 -12 9 -24 6 -27 -3 -3 -10 6 -16 21 -5
15 -14 25 -18 22 -4 -2 -6 11 -4 30 4 29 1 35 -24 44 -20 8 -30 8 -32 1 -2 -6
-9 -8 -15 -4 -7 4 -8 0 -4 -11 4 -10 10 -29 13 -42 3 -13 11 -21 17 -17 6 3 7
1 3 -5 -11 -18 -24 -14 -31 7 -4 13 -12 17 -26 14 -12 -3 -18 -11 -15 -19 3
-8 2 -14 -2 -14 -4 0 -7 -33 -8 -74 -1 -64 1 -75 17 -79 16 -4 17 -2 8 15 -6
11 -8 22 -5 26 3 3 6 0 6 -6 0 -7 9 -12 20 -12 23 0 26 -10 8 -28 -9 -9 -7
-13 7 -18 11 -5 22 -2 29 7 6 8 21 13 34 11 15 -2 22 2 22 14 0 13 3 14 15 4
10 -8 15 -9 15 -2 0 6 7 9 15 6 14 -6 19 5 16 34 -1 6 5 12 14 12 23 0 18 18
-7 23 l-23 4 23 2 c29 1 30 43 2 71 -11 11 -20 26 -20 33 0 6 5 4 11 -5 15
-27 30 -22 23 8 l-7 26 27 -17 26 -17 0 51 c0 28 4 51 9 51 5 0 7 9 4 20 -3
11 -9 17 -14 14 -5 -3 -9 12 -9 33 1 57 -2 77 -13 91 -6 7 -6 12 -1 10 5 -2
10 2 12 7 1 6 -9 11 -23 13 -20 3 -35 -6 -61 -33 -19 -20 -34 -41 -34 -46 0
-35 -62 -50 -68 -18 -3 15 38 36 61 31 4 -1 7 10 7 24 0 14 4 23 10 19 12 -7
62 29 53 39 -10 10 -53 7 -53 -4z m80 -126 c0 -8 -19 -13 -24 -6 -3 5 1 9 9 9
8 0 15 -2 15 -3z m-63 -46 c-3 -7 -5 -2 -5 12 0 14 2 19 5 13 2 -7 2 -19 0
-25z m-146 -181 c-10 -9 -11 -8 -5 6 3 10 9 15 12 12 3 -3 0 -11 -7 -18z m69
-12 c-14 -17 -30 -20 -30 -5 0 6 7 10 15 10 8 0 15 5 15 12 0 6 3 8 6 5 4 -4
1 -13 -6 -22z m-60 -25 c0 -5 -2 -10 -4 -10 -3 0 -8 5 -11 10 -3 6 -1 10 4 10
6 0 11 -4 11 -10z m106 -37 c-8 -16 -22 -36 -31 -43 -9 -8 -4 7 12 32 31 50
43 57 19 11z"/>
<path d="M2750 4475 c-4 -20 2 -70 11 -85 6 -11 8 -7 8 15 -1 32 -16 87 -19
70z"/>
<path d="M2322 4450 c0 -14 2 -19 5 -12 2 6 2 18 0 25 -3 6 -5 1 -5 -13z"/>
<path d="M2375 4460 c-7 -11 5 -40 16 -40 7 0 29 32 29 42 0 8 -40 6 -45 -2z"/>
<path d="M2664 4415 c3 -27 10 -53 15 -58 4 -4 5 15 0 44 -11 67 -24 79 -15
14z"/>
<path d="M3120 4449 c0 -11 27 -12 34 -1 2 4 -4 9 -15 9 -10 1 -19 -2 -19 -8z"/>
<path d="M2090 4419 c0 -11 4 -18 10 -14 5 3 7 12 3 20 -7 21 -13 19 -13 -6z"/>
<path d="M2350 4420 c0 -11 2 -20 4 -20 2 0 6 9 9 20 3 11 1 20 -4 20 -5 0 -9
-9 -9 -20z"/>
<path d="M3170 4426 c0 -2 9 -6 20 -9 11 -3 18 -1 14 4 -5 9 -34 13 -34 5z"/>
<path d="M1950 4416 c0 -2 7 -7 16 -10 8 -3 12 -2 9 4 -6 10 -25 14 -25 6z"/>
<path d="M2113 4394 c-15 -16 -16 -24 -4 -24 8 0 24 30 19 35 -2 2 -9 -3 -15
-11z"/>
<path d="M3220 4406 c0 -2 18 -15 40 -30 46 -30 55 -21 10 12 -26 20 -50 28
-50 18z"/>
<path d="M3130 4392 c0 -4 10 -13 23 -21 22 -14 22 -14 3 8 -20 22 -26 25 -26
13z"/>
<path d="M3202 4382 c30 -40 75 -77 93 -77 11 0 19 -6 17 -13 -1 -8 2 -11 8
-7 6 4 5 13 -3 25 -13 22 -37 27 -38 8 0 -7 -4 -3 -9 10 -5 12 -16 25 -25 28
-8 4 -15 12 -15 19 0 7 -9 15 -21 18 -17 5 -18 3 -7 -11z"/>
<path d="M3325 4370 c16 -16 31 -28 33 -25 7 7 -39 55 -52 55 -5 0 3 -13 19
-30z"/>
<path d="M2371 4353 c-10 -22 -10 -25 2 -15 8 7 16 9 20 6 3 -3 3 3 0 15 -7
27 -7 26 -22 -6z"/>
<path d="M3105 4359 c7 -35 24 -47 21 -13 -2 15 -8 30 -14 32 -7 2 -9 -6 -7
-19z"/>
<path d="M2173 4321 c-31 -72 -29 -97 3 -42 14 25 24 56 22 70 -3 22 -6 18
-25 -28z"/>
<path d="M1902 4340 c0 -14 2 -19 5 -12 2 6 2 18 0 25 -3 6 -5 1 -5 -13z"/>
<path d="M3140 4352 c0 -18 27 -62 54 -87 14 -13 26 -31 26 -39 0 -9 6 -13 14
-10 8 3 18 -7 26 -25 7 -17 17 -31 22 -31 11 0 -1 44 -13 48 -5 2 -9 12 -9 22
0 11 -14 35 -31 55 -36 41 -89 81 -89 67z"/>
<path d="M1859 4338 c-1 -7 -2 -26 -3 -43 -1 -16 -10 -43 -20 -58 -15 -23 -17
-30 -6 -40 10 -9 11 -9 6 0 -3 6 2 16 11 22 10 6 14 11 9 11 -5 0 -1 9 9 20
14 15 15 20 4 20 -11 0 -11 2 1 10 13 9 13 10 0 10 -12 1 -11 4 4 15 17 13 17
15 2 30 -12 12 -16 13 -17 3z"/>
<path d="M2021 4334 c0 -11 3 -14 6 -6 3 7 2 16 -1 19 -3 4 -6 -2 -5 -13z"/>
<path d="M2102 4313 c-17 -20 -20 -28 -11 -39 8 -10 8 -14 0 -14 -6 0 -12 -12
-12 -27 -2 -22 -3 -19 -9 12 l-6 40 -18 -38 c-9 -21 -14 -42 -11 -47 3 -4 2
-10 -2 -12 -11 -4 -67 -77 -82 -106 -7 -13 -10 -31 -6 -40 5 -14 4 -15 -7 -4
-10 10 -9 21 5 59 l18 47 -27 -25 -27 -24 28 43 c15 23 25 45 21 49 -3 3 -6 1
-6 -5 0 -13 -86 -113 -92 -107 -2 2 -12 -9 -23 -26 -24 -35 -30 -36 -30 -4 0
14 3 25 6 25 4 0 10 8 13 18 6 17 -46 -36 -92 -94 -19 -24 -23 -25 -20 -9 4
30 -10 45 -40 45 -21 0 -24 -2 -12 -10 14 -9 13 -11 -10 -14 -6 0 -17 -14 -25
-29 -10 -20 -11 -27 -2 -26 29 3 48 -2 42 -12 -4 -6 -19 -7 -35 -4 -16 3 -31
2 -35 -4 -3 -6 -1 -11 4 -11 6 0 11 -5 11 -11 0 -5 -4 -7 -10 -4 -5 3 -11 1
-11 -4 -5 -41 -31 -81 -53 -81 -15 0 -17 -3 -8 -8 10 -7 10 -14 -3 -38 -8 -16
-15 -37 -15 -47 0 -10 -3 -16 -7 -14 -5 3 -8 -6 -8 -19 0 -13 3 -24 7 -24 4 0
14 -7 22 -16 15 -14 18 -14 36 8 11 12 19 28 20 34 0 18 40 25 40 7 0 -9 11
-4 31 16 17 17 34 31 38 31 4 0 18 9 31 20 12 11 26 17 31 14 5 -3 6 1 3 9 -3
8 6 18 21 25 14 6 34 26 45 44 16 27 20 30 22 13 0 -11 0 -29 -1 -40 -1 -15 1
-17 11 -7 19 19 48 15 48 -7 0 -10 8 -25 18 -32 9 -7 14 -9 10 -5 -4 5 4 15
18 23 31 16 44 17 44 3 0 -5 -7 -10 -16 -10 -14 0 -14 -3 -4 -15 7 -9 10 -19
6 -23 -4 -4 -14 2 -22 12 -13 19 -14 19 -14 -6 0 -30 -20 -50 -20 -21 -1 11
-6 5 -15 -14 -15 -36 -35 -44 -36 -15 0 11 -5 6 -14 -13 -9 -20 -10 -32 -3
-36 14 -9 3 -39 -14 -39 -10 0 -10 2 -1 8 8 5 7 12 -3 27 -14 19 -16 19 -25 3
-6 -10 -17 -18 -24 -18 -9 0 -15 -10 -15 -25 0 -14 5 -25 10 -25 17 0 11 -35
-9 -52 -11 -9 -22 -14 -24 -11 -3 3 -15 2 -27 -2 -12 -4 -19 -9 -16 -12 8 -8
-53 -63 -72 -64 -9 0 -12 -3 -5 -5 8 -4 6 -11 -8 -25 -10 -10 -19 -27 -19 -36
0 -9 -7 -24 -16 -34 -8 -9 -17 -23 -18 -31 -2 -7 -6 -26 -11 -41 -4 -16 -8
-45 -8 -65 0 -21 -5 -40 -9 -43 -5 -3 -11 -30 -14 -60 -2 -30 -7 -65 -11 -79
-12 -44 -10 -92 3 -97 9 -3 10 -12 4 -28 -5 -14 -5 -26 3 -34 8 -8 6 -15 -9
-26 -18 -14 -17 -14 16 -15 l35 -2 -30 -10 c-36 -13 -65 -37 -65 -53 0 -15 31
-29 39 -18 3 5 18 14 34 20 21 10 27 10 28 0 1 -21 18 27 18 54 1 14 8 40 17
58 17 33 19 33 83 9 18 -7 21 -11 12 -22 -7 -8 -23 -13 -36 -12 -33 4 -52 -9
-38 -26 5 -7 7 -24 2 -38 -5 -18 -7 -20 -8 -7 -1 10 -6 17 -13 15 -7 -3 -12
-14 -11 -26 1 -36 3 -38 13 -22 7 11 10 6 10 -20 -1 -42 -20 -70 -47 -70 -20
0 -53 -38 -53 -61 0 -17 33 -54 51 -57 9 -1 22 5 29 13 10 12 10 15 0 15 -10
0 -9 5 2 18 10 11 13 24 8 37 -9 26 -2 45 17 45 13 0 13 -2 2 -17 -13 -15 -12
-15 9 -4 16 9 22 9 22 0 0 -6 6 -9 14 -6 8 3 17 -1 20 -9 8 -22 7 -26 -4 -19
-5 3 -10 1 -10 -4 0 -6 16 -11 35 -11 19 0 35 -5 35 -10 0 -10 21 -8 74 7 12
3 16 1 12 -6 -5 -8 0 -8 16 -2 13 4 29 6 36 4 6 -3 12 3 12 12 0 9 6 15 13 12
6 -2 11 -11 9 -21 -2 -9 2 -16 8 -16 5 0 10 5 10 10 0 6 9 10 20 10 10 0 23 7
28 16 5 9 14 14 20 10 17 -10 10 -44 -11 -50 -15 -4 -16 -2 -6 10 18 22 -6 17
-26 -6 -20 -22 -14 -50 12 -51 16 0 16 -1 -2 -9 -18 -8 -18 -9 -2 -9 11 -1 16
-6 12 -13 -4 -7 1 -4 9 6 9 11 16 30 16 43 0 13 4 23 9 23 11 0 24 -47 16 -60
-3 -4 1 -11 7 -14 7 -3 3 -3 -8 -1 -14 4 -24 0 -27 -9 -4 -9 -14 -12 -27 -9
-12 3 -25 0 -29 -6 -5 -7 -31 -13 -59 -13 -54 -1 -76 7 -54 21 24 15 -20 40
-68 39 -69 -3 -110 5 -110 19 0 9 -8 11 -27 7 -37 -9 -44 -14 -38 -25 4 -5 0
-9 -7 -9 -9 0 -9 -3 2 -10 12 -7 12 -10 1 -10 -9 0 -11 -7 -7 -23 4 -17 1 -24
-9 -24 -10 0 -13 7 -10 18 8 23 -5 70 -16 63 -5 -3 -9 3 -9 12 0 10 -3 15 -6
11 -11 -11 -12 -287 -1 -287 6 0 7 -15 3 -39 -3 -22 -1 -52 4 -67 7 -18 7 -30
-1 -40 -6 -7 -8 -18 -4 -24 4 -7 -2 -14 -14 -17 -12 -3 -21 -9 -21 -15 0 -5 7
-5 18 0 11 6 26 4 42 -4 l24 -13 -24 -9 c-14 -5 -29 -7 -35 -4 -5 3 -4 -1 2
-10 7 -8 10 -18 6 -21 -3 -4 -1 -7 5 -7 7 0 12 5 12 11 0 5 5 7 11 4 7 -5 6
-12 -4 -23 -29 -35 -44 -94 -21 -85 8 3 11 9 8 14 -6 10 15 53 22 46 9 -9 -16
-86 -34 -103 -16 -17 -16 -18 1 -11 10 4 21 7 23 7 3 0 3 4 -1 9 -3 5 -1 12 5
16 5 3 10 1 10 -6 0 -7 9 -9 23 -6 21 6 21 6 3 -8 -11 -8 -28 -15 -37 -15 -26
0 -32 -17 -9 -23 11 -3 18 -1 14 4 -3 5 7 9 23 9 22 0 25 -2 13 -10 -8 -5 -11
-10 -6 -10 5 0 3 -6 -3 -14 -9 -11 -9 -15 1 -19 10 -4 10 -8 -2 -16 -9 -7 -10
-11 -3 -11 6 0 15 5 18 10 4 6 11 8 16 4 5 -3 7 -10 4 -15 -4 -5 -4 -9 0 -9
13 0 26 53 15 64 -16 16 -12 30 5 16 11 -9 15 -10 15 -1 0 8 8 10 20 6 12 -4
28 -1 36 6 8 6 17 9 20 7 3 -3 -8 -11 -23 -18 -16 -7 -37 -24 -47 -37 -17 -24
-17 -24 0 -15 50 26 94 41 94 33 0 -6 -8 -12 -19 -16 -10 -3 -27 -15 -37 -26
-18 -20 -18 -20 9 -10 19 7 26 7 24 -1 -1 -6 4 -13 12 -16 8 -2 11 0 8 5 -3 5
4 10 15 10 11 1 30 10 42 20 11 9 15 11 9 3 -15 -17 -17 -44 -3 -35 6 3 10 1
10 -4 0 -6 -4 -11 -8 -11 -4 0 -8 -15 -9 -32 -2 -33 -2 -33 8 -7 6 15 19 29
31 32 20 6 20 6 -1 -14 -11 -11 -20 -27 -20 -37 1 -15 2 -15 6 1 3 10 16 22
30 28 20 7 23 13 17 32 -11 35 -13 68 -3 61 5 -3 9 -20 10 -37 0 -27 2 -29 9
-12 7 17 9 16 10 -10 2 -18 4 -23 7 -12 2 9 8 15 13 12 5 -3 11 -1 15 4 3 6
-3 15 -14 21 -13 7 -18 16 -14 27 5 13 8 12 15 -8 9 -23 10 -23 23 -6 14 20
32 6 19 -15 -5 -7 -9 -21 -9 -31 -1 -10 -8 -23 -15 -30 -10 -10 -11 -9 -5 3 5
8 4 12 0 7 -5 -4 -10 -15 -11 -25 -1 -9 -5 -26 -9 -37 -6 -16 -2 -14 19 7 15
16 28 28 31 28 9 0 -3 -33 -16 -41 -8 -5 -10 -9 -5 -9 5 0 -4 -12 -20 -27 -16
-15 -32 -27 -36 -25 -4 1 -6 -6 -6 -16 0 -9 -7 -37 -16 -61 -9 -24 -15 -46
-13 -47 7 -8 48 38 44 49 -4 14 35 47 55 47 7 0 24 7 36 16 12 8 22 13 22 10
0 -3 -18 -18 -40 -32 -41 -27 -46 -52 -7 -33 22 10 22 10 2 -8 -11 -10 -26
-26 -33 -35 -12 -15 -11 -17 9 -13 28 6 40 -2 32 -21 -4 -11 -8 -12 -13 -5 -4
8 -16 2 -33 -15 -35 -35 -35 -51 1 -26 33 23 65 36 57 22 -4 -6 3 -14 14 -18
14 -5 18 -11 12 -21 -10 -15 -71 -24 -71 -10 0 8 30 13 55 10 6 -1 2 5 -9 13
-20 16 -42 10 -66 -19 -11 -14 -11 -18 -1 -25 15 -9 6 -30 -13 -30 -7 0 -21
-10 -32 -22 -19 -23 -19 -23 2 -5 11 9 24 14 27 11 4 -4 -1 -14 -11 -22 -14
-12 -13 -12 8 1 14 8 25 21 25 28 1 8 6 13 12 12 6 -1 10 5 9 14 0 8 7 17 17
18 20 4 22 -6 5 -23 -16 -16 3 -15 24 2 10 7 14 17 10 21 -4 5 -1 5 7 0 8 -4
28 -8 45 -8 l31 0 -32 -10 c-18 -5 -33 -14 -33 -18 0 -5 -7 -5 -17 -2 -10 4
-14 2 -9 -5 3 -6 -2 -17 -12 -24 -10 -7 -22 -20 -27 -28 -6 -11 -3 -10 12 2
21 19 38 24 28 9 -10 -18 15 -22 32 -6 15 15 15 16 -2 13 -10 -2 -20 3 -23 11
-3 10 0 12 13 8 11 -5 24 1 36 15 l20 23 -6 -23 c-6 -22 -5 -23 14 -13 26 15
27 6 1 -26 -12 -16 -20 -20 -21 -12 0 8 -4 3 -10 -9 -10 -26 -5 -42 14 -42 7
0 6 4 -3 10 -22 13 -7 21 41 22 24 0 52 4 61 9 14 8 16 6 11 -7 -5 -13 -3 -15
8 -10 8 4 3 -2 -11 -13 l-25 -21 23 0 c13 0 34 11 48 25 30 30 55 34 29 5 -22
-24 -9 -27 17 -3 17 15 18 15 13 1 -5 -13 -1 -16 18 -14 19 2 24 -1 19 -12 -4
-11 -1 -14 11 -9 20 7 22 -4 5 -21 -9 -9 -9 -12 1 -12 8 0 11 -6 7 -15 -3 -8
-9 -23 -13 -32 -3 -10 10 2 30 25 20 24 37 49 37 55 0 7 -9 -1 -20 -18 -11
-16 -20 -25 -20 -20 1 26 73 85 88 71 3 -3 0 -6 -7 -6 -7 0 -9 -4 -6 -10 3 -5
-1 -10 -9 -10 -9 0 -16 -4 -16 -10 0 -5 6 -10 14 -10 8 0 17 -9 21 -19 3 -11
14 -20 23 -19 9 0 27 -3 40 -6 13 -3 20 -1 17 5 -4 5 -11 6 -17 3 -7 -5 -9 2
-4 20 5 19 3 26 -9 26 -8 0 -16 8 -16 18 -1 9 -5 4 -8 -13 -7 -29 -7 -29 -12
11 -3 31 -1 40 8 37 7 -3 13 0 13 6 0 6 7 8 15 5 8 -4 15 -1 15 5 0 10 -12 15
-31 13 -3 -1 -6 16 -7 36 -1 20 -4 49 -8 65 -3 16 -1 27 5 27 12 0 12 -1 15
-45 1 -19 7 -29 15 -27 7 1 10 -2 6 -8 -3 -6 -11 -8 -16 -5 -21 14 -7 -14 16
-29 25 -17 25 -46 -1 -46 -8 0 -14 -5 -14 -11 0 -5 4 -8 9 -4 5 3 12 1 16 -5
4 -7 12 -7 24 0 10 5 22 6 26 2 5 -4 5 -2 1 5 -3 6 2 16 11 22 10 6 14 11 9
11 -5 0 -3 7 4 15 11 13 15 13 21 3 5 -7 9 -17 9 -23 0 -5 -5 -3 -10 5 -8 12
-10 9 -10 -13 0 -32 16 -28 30 8 8 20 60 42 60 25 0 -13 51 2 57 16 3 8 9 11
14 8 5 -3 5 -13 -1 -24 -13 -24 3 -35 21 -14 10 12 10 22 1 46 -7 20 -8 38 -1
55 12 31 16 28 28 -23 8 -36 9 -37 10 -9 1 26 3 27 12 12 6 -9 7 -26 4 -37
-10 -33 26 -21 38 12 6 18 37 15 37 -4 0 -6 -7 -8 -15 -4 -8 3 -15 1 -15 -4 0
-16 15 -19 33 -5 18 13 19 35 2 47 -6 5 -3 8 6 8 8 0 20 12 27 28 8 18 10 20
6 5 -3 -13 -1 -23 5 -23 6 0 11 6 11 14 0 16 27 29 41 20 10 -6 12 7 3 30 -9
23 -23 20 -34 -6 -8 -19 -9 -17 -4 11 4 23 3 31 -5 27 -6 -4 -11 -17 -12 -29
0 -21 -1 -21 -8 -2 -7 16 -9 14 -16 -15 -8 -33 -8 -34 -12 -9 -2 16 -12 29
-23 32 -19 5 -25 47 -7 47 4 0 6 4 3 9 -11 17 6 43 25 38 12 -3 19 0 19 9 0 8
4 14 10 14 14 0 58 47 75 79 12 25 12 31 -1 47 -10 13 -14 14 -11 4 2 -8 -2
-21 -9 -28 -12 -11 -13 -10 -10 5 13 68 70 112 83 64 3 -12 13 -21 22 -21 19
0 71 -43 71 -58 0 -6 8 -16 18 -21 9 -6 11 -11 5 -11 -7 0 -13 -6 -13 -14 0
-8 6 -17 13 -19 10 -4 10 -6 0 -6 -7 -1 -13 -7 -13 -15 0 -8 7 -13 16 -12 9 0
19 -4 21 -11 3 -8 -3 -11 -16 -8 -14 2 -21 -1 -21 -11 0 -13 11 -18 37 -15 7
1 9 -7 6 -20 -4 -14 -2 -20 5 -16 5 4 12 1 15 -5 2 -7 8 -10 12 -5 5 4 3 13
-3 19 -15 15 -16 42 -2 33 6 -3 10 -1 10 5 0 6 4 8 10 5 6 -3 7 1 3 10 -3 9
-9 13 -12 8 -3 -5 -16 1 -29 14 -22 20 -12 27 16 10 7 -5 12 -4 12 3 0 6 12 3
26 -7 27 -17 27 -17 16 4 -6 11 -19 23 -28 27 -9 3 -14 13 -10 21 3 9 -3 19
-14 25 -31 16 -43 46 -29 72 10 19 12 20 21 4 5 -10 7 -29 3 -43 -6 -24 -5
-24 11 -9 9 10 14 26 12 41 -3 15 0 26 9 29 11 4 13 -4 11 -34 -1 -22 2 -44 8
-49 5 -6 9 14 9 54 1 52 -2 63 -15 60 -10 -2 -15 5 -15 20 0 15 5 21 14 17 8
-3 4 8 -9 26 -17 23 -26 28 -32 20 -5 -9 -8 -8 -8 5 0 9 6 17 13 17 8 0 22 9
31 19 17 19 17 21 -5 50 -12 16 -29 33 -38 37 -35 15 -41 11 -17 -11 31 -28
34 -40 7 -25 -11 5 -25 23 -33 40 -7 17 -18 28 -25 26 -6 -3 -13 3 -16 12 -2
9 -5 -3 -8 -27 -4 -33 0 -50 15 -70 18 -23 15 -22 -19 7 -67 55 -65 54 -65 40
0 -8 7 -24 16 -36 8 -12 10 -22 5 -22 -6 0 -11 4 -11 9 0 5 -7 12 -16 15 -12
5 -14 1 -8 -17 8 -26 43 -59 55 -51 5 3 6 -2 3 -10 -4 -11 -19 -16 -46 -16
-36 0 -39 2 -33 23 7 22 7 22 -9 2 -8 -11 -16 -15 -16 -8 0 6 6 18 13 25 7 7
13 24 14 38 0 14 4 33 7 42 4 9 3 25 -2 34 -9 16 -11 15 -22 -5 -6 -12 -9 -29
-6 -37 3 -9 1 -12 -4 -9 -6 3 -10 17 -10 29 0 30 -64 104 -74 87 -5 -7 -5 -15
-2 -18 3 -4 6 0 6 8 0 8 7 4 16 -9 9 -13 13 -26 9 -30 -3 -3 -10 0 -15 8 -9
13 -10 13 -11 0 0 -8 -5 -3 -11 13 -5 15 -13 27 -18 27 -12 0 -20 -29 -10 -35
15 -9 12 -22 -5 -22 -8 0 -15 9 -15 21 0 17 -2 18 -10 6 -7 -11 -8 -6 -4 17 5
26 1 40 -20 68 -16 20 -26 45 -24 58 2 13 -2 21 -9 19 -7 -1 -13 2 -13 8 0 5
-10 10 -22 11 -13 0 -17 3 -10 6 23 9 60 -6 67 -27 4 -11 11 -18 16 -14 12 7
41 -15 34 -26 -3 -5 5 -17 18 -27 13 -10 22 -24 19 -32 -3 -8 0 -11 7 -7 18
11 13 33 -11 52 -21 15 -21 16 -3 11 11 -2 29 -8 39 -13 16 -6 18 -4 12 12
-13 31 -12 49 2 46 8 -1 11 2 7 8 -3 5 -17 10 -31 10 -13 0 -24 6 -24 13 0 8
-3 7 -10 -3 -7 -11 -3 -18 13 -27 12 -7 18 -12 13 -13 -5 0 -2 -8 5 -17 13
-17 13 -17 -5 -3 -10 8 -27 14 -39 15 -12 0 -21 8 -23 18 -3 22 24 57 44 57 8
0 12 6 9 14 -3 8 5 19 19 26 29 16 30 36 5 69 l-19 24 -47 -28 c-26 -15 -44
-22 -40 -15 6 10 3 12 -9 7 -10 -4 -15 -3 -11 3 3 6 -2 10 -12 9 -25 -1 -71
-17 -53 -18 10 -1 11 -4 2 -13 -8 -8 -15 -8 -27 2 -15 13 -16 15 -1 26 15 10
14 12 -4 17 -11 3 -20 0 -20 -6 0 -8 -3 -7 -9 1 -9 15 -20 15 -37 1 -8 -6 -13
-3 -17 11 -3 14 -10 18 -21 14 -11 -4 -16 -2 -14 6 4 16 -60 32 -68 18 -3 -5
-12 -1 -19 9 -7 10 -11 21 -9 24 2 4 -6 5 -18 1 -16 -4 -19 -2 -13 9 4 8 -2 4
-14 -8 -24 -25 -36 -28 -46 -13 -3 6 -16 10 -28 10 -18 0 -19 -2 -7 -10 11 -7
8 -10 -16 -10 -17 0 -46 -3 -64 -6 -29 -6 -31 -5 -28 17 2 19 9 24 31 24 16 0
32 7 38 17 5 10 20 23 32 30 19 10 21 9 9 -4 -8 -10 -9 -19 -4 -22 13 -8 45
61 38 79 -3 8 -1 17 4 20 6 4 8 16 5 28 -8 33 19 98 46 113 23 13 23 13 2 14
-16 0 -20 5 -16 20 8 32 24 35 44 9 19 -24 19 -24 19 -2 0 12 -8 26 -17 31
-28 16 -25 42 5 40 15 -1 30 -6 33 -11 3 -4 12 -1 19 8 10 12 10 15 -5 15 -11
0 -15 5 -11 15 5 14 4 14 -16 0 -13 -8 -26 -15 -31 -15 -10 0 9 20 43 43 l25
17 -31 -6 c-25 -5 -32 -2 -36 13 -6 27 2 53 17 53 17 0 27 26 29 70 1 21 8 40
18 48 14 10 15 16 5 26 -15 17 -30 10 -23 -10 6 -17 -29 -20 -39 -4 -9 14 23
62 35 55 6 -3 7 1 4 9 -3 9 -2 16 4 16 18 0 0 41 -21 49 -16 6 -9 9 30 15 47
6 50 8 45 31 -2 15 0 25 7 25 7 0 9 5 6 10 -3 6 -1 10 4 10 6 0 11 12 11 28 0
15 7 35 15 45 7 11 11 25 9 32 -3 7 3 15 12 19 22 9 32 -2 14 -15 -11 -8 -12
-12 -2 -16 6 -2 12 -20 12 -39 0 -20 4 -33 9 -30 5 3 11 -9 14 -27 3 -17 11
-60 16 -95 6 -35 15 -71 20 -80 4 -9 14 -41 21 -70 12 -54 36 -78 69 -70 12 4
16 -3 17 -29 0 -26 9 -41 40 -67 21 -19 50 -43 63 -55 13 -12 27 -21 31 -21 3
0 15 -8 26 -18 43 -40 99 -65 144 -64 25 0 48 -4 51 -10 5 -7 13 -7 25 1 11 6
13 11 6 11 -6 0 -11 3 -11 8 4 23 -4 32 -30 32 -17 0 -35 8 -43 18 -7 10 -21
21 -30 25 -9 3 -21 14 -27 25 -9 17 -6 19 42 20 29 1 85 -4 126 -12 55 -9 70
-10 57 -1 -20 15 -21 25 -1 25 21 0 19 20 -2 21 -12 1 -10 4 7 9 23 7 22 8
-10 9 -19 1 -44 8 -54 16 -18 14 -16 15 26 15 26 0 50 5 53 10 3 6 17 10 31
10 13 0 32 9 41 20 28 32 68 26 87 -14 9 -19 16 -41 16 -49 0 -8 7 -18 16 -21
30 -11 37 -6 19 14 -14 15 -15 23 -6 34 14 17 -11 88 -62 181 -37 66 -115 128
-177 141 -24 5 -29 9 -17 12 17 3 16 5 -6 17 -13 7 -45 15 -71 19 -25 4 -46
11 -46 17 0 5 -7 9 -15 9 -9 0 -12 6 -9 15 4 8 1 22 -5 29 -9 11 -9 16 0 22 8
4 9 3 5 -4 -4 -7 -1 -12 6 -12 17 1 48 24 48 36 0 13 59 34 65 24 3 -5 23 -6
45 -4 33 4 39 2 34 -11 -4 -9 -3 -15 2 -14 5 1 11 0 14 -1 3 -1 14 -3 25 -5
11 -2 21 -9 23 -14 2 -6 10 -11 18 -11 8 0 14 -5 14 -10 0 -6 11 -27 24 -48
13 -20 32 -73 42 -117 24 -115 31 -130 49 -115 18 15 18 10 5 -25 -9 -23 -8
-26 6 -21 8 3 18 6 20 6 8 0 4 52 -7 72 -8 14 -8 23 0 31 7 7 7 16 -1 31 -17
32 -27 85 -17 92 5 3 8 25 7 50 -3 37 -6 44 -21 40 -9 -2 -14 0 -11 6 3 5 1
30 -6 54 -9 30 -16 41 -21 32 -6 -9 -9 -8 -15 5 -3 9 -15 17 -25 17 -20 0 -25
15 -9 25 6 4 -3 19 -22 35 -18 16 -34 25 -36 20 -6 -18 -20 -10 -15 8 3 12 -2
18 -17 19 -11 1 -28 9 -37 18 -13 14 -26 15 -77 9 -70 -10 -108 -10 -191 0
-44 6 -56 5 -45 -3 12 -8 4 -11 -31 -11 -26 0 -62 -2 -80 -5 -24 -4 -28 -3
-14 3 19 9 19 9 0 20 -11 6 -14 12 -7 12 6 0 12 4 12 9 0 5 -9 7 -21 4 -13 -4
-19 -12 -16 -23 2 -9 -1 -17 -9 -17 -7 0 -10 5 -7 11 4 7 1 6 -8 -1 -8 -6 -17
-12 -21 -12 -5 -1 -8 -3 -8 -6 0 -28 1 -29 10 -15 8 11 9 3 6 -27 -3 -23 0
-44 5 -47 5 -2 4 -3 -3 -2 -7 1 -15 18 -19 37 -3 19 -9 41 -14 49 -5 8 -10 31
-12 50 -1 19 -4 46 -7 59 -3 15 0 32 9 42 14 14 14 18 0 29 -13 11 -14 10 -9
-4 3 -9 1 -16 -5 -16 -6 0 -11 5 -11 10 0 6 -9 2 -21 -8 -19 -19 -20 -25 -11
-108 10 -87 10 -89 -15 -113 -13 -14 -20 -27 -14 -29 6 -2 11 -8 11 -13 0 -6
-4 -8 -9 -4 -6 3 -14 -3 -20 -12 -6 -10 -11 -15 -11 -11 0 4 -12 3 -27 -3 -23
-8 -26 -8 -15 2 13 14 17 33 4 25 -4 -2 -7 23 -7 56 0 33 -3 61 -6 64 -3 2 -4
16 -1 30 3 19 1 25 -6 20 -8 -5 -10 2 -6 23 5 26 2 32 -19 42 -14 7 -28 19
-30 28 -3 9 -6 -4 -7 -29 -1 -25 -4 -39 -7 -32 -10 25 -19 11 -15 -23 3 -26 0
-35 -10 -35 -24 0 -38 44 -27 82 15 52 9 68 -7 18 -16 -49 -10 -215 7 -204 5
3 9 -4 9 -15 0 -14 -5 -19 -15 -15 -11 5 -13 2 -9 -10 5 -12 2 -15 -12 -9 -9
3 -15 2 -12 -3 3 -5 1 -13 -6 -19 -15 -14 -56 -17 -56 -5 0 6 6 10 13 10 7 0
8 3 2 8 -13 9 -16 42 -4 42 5 0 6 7 3 15 -4 8 -15 15 -25 15 -10 0 -19 7 -19
15 0 8 -4 15 -9 15 -14 0 -23 52 -12 63 6 6 10 20 10 31 -1 17 -2 18 -6 4 -2
-10 -11 -18 -20 -18 -11 0 -14 6 -9 25 5 18 2 27 -9 32 -9 3 -14 11 -11 18 2
7 -5 15 -16 18 -11 3 -18 10 -15 14 7 11 -22 73 -34 73 -5 0 -9 -7 -9 -15 0
-8 -9 -15 -20 -15 -14 0 -18 5 -13 18 6 15 4 15 -15 -2 -14 -12 -21 -27 -18
-40 3 -12 0 -8 -7 7 -9 24 -16 28 -39 25 -32 -5 -35 -1 -10 18 16 13 16 14 -5
20 -12 3 -19 12 -17 19 3 7 1 16 -5 20 -7 3 -11 -2 -11 -14 0 -12 -4 -21 -10
-21 -5 0 -10 7 -10 15 0 8 -4 15 -10 15 -5 0 -10 -6 -10 -14 0 -8 -13 -24 -30
-36 -16 -12 -30 -18 -30 -13 0 5 9 15 19 23 11 7 18 17 15 21 -8 14 20 49 38
49 21 0 24 16 6 23 -7 3 -4 5 7 6 20 1 66 8 75 11 3 1 9 2 14 1 4 -1 14 3 21
9 9 8 15 8 20 0 3 -5 -6 -15 -22 -21 -67 -26 -70 -28 -50 -28 14 -1 17 -6 12
-21 -5 -15 -3 -18 9 -14 9 3 16 13 16 21 0 9 6 13 15 9 9 -3 15 0 15 9 0 8 7
15 16 15 8 0 13 4 10 8 -10 16 12 34 40 34 16 0 37 7 46 15 10 9 24 13 33 10
15 -6 19 3 15 37 -1 11 3 15 9 12 6 -4 11 -2 11 3 0 6 -4 11 -9 11 -5 0 -12
11 -15 25 -10 41 -27 18 -21 -28 5 -40 4 -41 -5 -10 -10 32 -30 54 -30 34 0
-16 -70 -42 -93 -35 -18 6 -18 7 -4 15 9 5 14 16 11 24 -5 12 -10 10 -26 -8
l-20 -22 5 23 c3 12 1 23 -4 23 -5 1 -13 2 -18 3 -17 2 -24 16 -8 16 36 0 22
16 -15 17 -44 2 -73 26 -38 31 27 5 62 75 58 117 l-3 34 -23 -26z m-312 -278
c-7 -9 -15 -13 -17 -11 -6 6 20 36 26 30 2 -2 -2 -10 -9 -19z m470 6 c0 -5
-11 -11 -24 -13 -17 -4 -23 -1 -19 9 6 14 43 18 43 4z m-560 -28 c0 -15 -15
-29 -35 -36 -19 -7 -19 -6 -2 7 9 7 17 18 17 25 0 6 5 11 10 11 6 0 10 -3 10
-7z m327 -69 c-3 -3 -12 -4 -19 -1 -8 3 -5 6 6 6 11 1 17 -2 13 -5z m-110 -49
c-7 -13 -14 -20 -15 -14 -2 5 2 16 8 24 18 21 20 18 7 -10z m-110 -17 c-3 -8
-6 -5 -6 6 -1 11 2 17 5 13 3 -3 4 -12 1 -19z m73 -8 c0 -5 -4 -10 -9 -10 -6
0 -13 5 -16 10 -3 6 1 10 9 10 9 0 16 -4 16 -10z m200 -31 c0 -5 -4 -9 -10 -9
-5 0 -10 -9 -10 -20 0 -12 -7 -20 -16 -20 -9 0 -23 -8 -29 -17 -12 -15 -13
-13 -12 20 1 21 6 37 13 37 6 0 14 6 17 14 6 15 47 11 47 -5z m-150 -19 c0 -5
-5 -10 -11 -10 -5 0 -7 5 -4 10 3 6 8 10 11 10 2 0 4 -4 4 -10z m985 -230 c3
-5 0 -7 -8 -4 -8 3 -17 -2 -20 -10 -8 -20 -37 -21 -37 -2 0 21 54 34 65 16z
m-525 -50 c0 -5 -2 -10 -4 -10 -3 0 -8 5 -11 10 -3 6 -1 10 4 10 6 0 11 -4 11
-10z m-573 -6 c-3 -3 -12 -4 -19 -1 -8 3 -5 6 6 6 11 1 17 -2 13 -5z m646
-101 c-10 -8 -22 -9 -33 -3 -10 5 -20 6 -24 3 -3 -3 -6 -1 -6 5 0 7 14 12 30
12 17 0 30 5 30 13 0 8 4 7 10 -3 7 -11 5 -19 -7 -27z m215 18 c3 -8 -1 -12
-9 -9 -7 2 -15 10 -17 17 -3 8 1 12 9 9 7 -2 15 -10 17 -17z m-1048 -56 c-7
-9 -15 -13 -18 -10 -3 2 1 11 8 20 7 9 15 13 18 10 3 -2 -1 -11 -8 -20z m10
-43 c0 -5 -7 -9 -15 -9 -8 0 -12 4 -9 9 3 4 9 8 15 8 5 0 9 -4 9 -8z m263 -35
c15 -4 38 -9 52 -12 16 -4 25 -12 25 -24 0 -11 6 -21 13 -24 6 -2 -31 -3 -83
-1 -70 2 -97 6 -105 18 -7 9 -20 13 -33 9 -24 -6 -29 -19 -9 -26 6 -2 2 -2
-10 0 -24 4 -32 -11 -10 -21 6 -4 2 -4 -10 -2 -16 3 -21 -1 -18 -13 3 -17 -12
-35 -32 -37 -30 -2 -34 -5 -28 -14 3 -5 -1 -10 -10 -10 -9 0 -13 -5 -10 -10 4
-6 12 -8 18 -4 7 3 1 -4 -13 -16 -16 -14 -19 -20 -8 -17 15 5 15 3 0 -31 -9
-20 -27 -54 -40 -74 -20 -33 -26 -52 -31 -105 0 -7 -8 -13 -17 -13 -12 0 -14
3 -6 13 5 6 12 32 15 57 5 50 58 223 69 228 4 2 4 10 1 18 -3 8 -1 14 4 14 6
0 15 10 21 23 6 12 11 16 11 10 1 -18 21 -16 21 2 0 8 7 15 15 15 9 0 15 10
16 23 0 12 3 16 6 10 6 -17 38 -16 52 0 6 8 23 12 41 9 16 -2 30 0 30 5 0 11
18 11 63 0z m1334 -13 c-3 -3 -12 -4 -19 -1 -8 3 -5 6 6 6 11 1 17 -2 13 -5z
m-757 -34 c0 -5 -2 -10 -4 -10 -3 0 -8 5 -11 10 -3 6 -1 10 4 10 6 0 11 -4 11
-10z m876 -32 c24 -12 44 -26 44 -31 0 -13 -69 -1 -122 20 -35 14 -38 18 -22
24 32 13 55 10 100 -13z m-816 -48 c0 -5 -2 -10 -4 -10 -3 0 -8 5 -11 10 -3 6
-1 10 4 10 6 0 11 -4 11 -10z m910 -42 c0 -5 -7 -3 -15 6 -8 8 -15 18 -15 22
0 3 7 1 15 -6 8 -7 15 -17 15 -22z m-900 -108 c0 -5 -4 -10 -10 -10 -5 0 -10
5 -10 10 0 6 5 10 10 10 6 0 10 -4 10 -10z m750 3 c25 -7 25 -7 -5 -13 -35 -7
-65 -2 -65 11 0 11 35 11 70 2z m-233 -169 c-3 -3 -12 -4 -19 -1 -8 3 -5 6 6
6 11 1 17 -2 13 -5z m-1393 -76 c-10 -16 -22 -7 -17 13 4 15 8 17 14 8 4 -7 5
-17 3 -21z m1457 9 c-1 -12 -15 -9 -19 4 -3 6 1 10 8 8 6 -3 11 -8 11 -12z
m-1396 -27 c-3 -5 -12 -10 -18 -10 -7 0 -6 4 3 10 19 12 23 12 15 0z m385
-110 c0 -5 -7 -7 -15 -4 -8 4 -15 8 -15 10 0 2 7 4 15 4 8 0 15 -4 15 -10z
m-20 -26 c0 -12 -43 -44 -51 -38 -16 10 -9 24 11 24 11 0 20 5 20 10 0 6 5 10
10 10 6 0 10 -3 10 -6z m17 -31 c-3 -10 -5 -4 -5 12 0 17 2 24 5 18 2 -7 2
-21 0 -30z m-42 -30 c-2 -10 -4 -20 -4 -22 -1 -3 -6 0 -12 6 -6 6 -8 16 -5 22
11 17 25 13 21 -6z m-215 -133 c0 -5 -5 -10 -11 -10 -5 0 -7 5 -4 10 3 6 8 10
11 10 2 0 4 -4 4 -10z m-50 -44 c0 -3 -4 -8 -10 -11 -5 -3 -10 -1 -10 4 0 6 5
11 10 11 6 0 10 -2 10 -4z m-10 -61 c-7 -8 -15 -14 -18 -13 -26 3 -35 -3 -24
-14 17 -17 15 -28 -5 -28 -15 0 -16 2 -3 10 8 5 10 10 4 10 -6 0 -26 3 -43 6
-20 4 -31 2 -31 -4 0 -7 8 -9 18 -5 16 5 16 5 0 -12 -9 -9 -21 -14 -27 -11
-14 9 -14 36 0 36 5 0 8 4 5 9 -4 5 9 6 28 1 31 -7 35 -5 40 15 4 17 11 22 25
18 10 -3 22 1 27 8 6 10 9 10 12 1 2 -7 -1 -19 -8 -27z m-70 10 c0 -8 -4 -15
-10 -15 -5 0 -7 7 -4 15 4 8 8 15 10 15 2 0 4 -7 4 -15z m116 -11 c-9 -8 -16
-21 -16 -29 0 -8 -7 -11 -20 -8 -11 3 -20 7 -20 9 0 13 38 44 53 44 17 0 17
-1 3 -16z m84 -44 c0 -5 -5 -10 -11 -10 -5 0 -7 5 -4 10 3 6 8 10 11 10 2 0 4
-4 4 -10z m-172 -40 c-14 -22 -24 -19 -15 5 4 8 11 15 17 15 6 0 6 -7 -2 -20z
m-74 -11 c-3 -5 -10 -7 -15 -3 -5 3 -7 10 -3 15 3 5 10 7 15 3 5 -3 7 -10 3
-15z m1098 -73 c-3 -5 4 -7 16 -4 15 4 19 2 15 -8 -3 -8 -9 -14 -13 -14 -4 0
-7 -25 -6 -55 1 -41 5 -54 15 -52 8 1 16 -3 18 -9 2 -7 -4 -11 -13 -10 -12 1
-20 -10 -27 -34 -5 -19 -13 -40 -18 -46 -14 -17 1 -25 24 -12 16 8 19 8 14 -4
-8 -22 6 -38 37 -44 17 -3 25 -1 21 6 -3 6 0 7 9 4 11 -4 16 0 16 12 0 11 5
26 11 34 8 12 9 10 4 -9 -5 -16 -4 -21 4 -17 7 4 11 -1 11 -13 0 -12 5 -21 10
-21 17 0 54 39 45 47 -4 5 -10 2 -12 -4 -6 -18 -23 -16 -23 2 0 8 5 15 11 15
7 0 9 11 6 27 l-5 28 19 -25 c10 -14 24 -31 29 -37 8 -9 7 -13 -1 -13 -6 0 -9
-9 -6 -20 3 -11 1 -22 -4 -25 -4 -3 -6 -12 -3 -19 4 -10 -8 -11 -58 -4 -34 4
-66 12 -71 17 -11 11 -35 4 -58 -16 -9 -7 -30 -15 -46 -16 -17 -1 -29 -6 -27
-12 5 -12 -58 -14 -67 -2 -3 4 -27 9 -53 11 -26 2 -50 7 -53 10 -4 3 -17 6
-29 6 -13 0 -26 5 -30 12 -5 8 -2 9 10 5 10 -4 15 -3 11 4 -4 5 0 21 9 34 24
36 66 79 66 67 0 -6 -7 -15 -15 -20 -13 -7 -14 -14 -6 -35 10 -24 31 -38 31
-19 0 4 11 12 25 19 21 9 25 9 25 -5 1 -15 2 -15 14 1 8 10 20 15 29 11 8 -3
18 -1 21 5 4 6 14 7 24 4 9 -3 14 -3 10 2 -4 4 -1 13 8 19 24 18 25 85 2 105
-41 36 -68 64 -68 74 0 6 8 1 18 -11 20 -23 72 -40 72 -24 0 5 -6 15 -14 21
-11 9 -15 9 -18 0 -5 -16 -25 -4 -39 24 -12 22 -12 22 10 3 18 -17 21 -17 15
-3 -10 26 1 42 29 42 14 0 23 -4 19 -9z m-491 -14 c-7 -2 -9 -7 -4 -11 4 -3 6
-22 2 -41 -4 -23 -7 -27 -8 -12 0 13 -5 21 -10 18 -5 -3 -8 -24 -7 -46 2 -30
-1 -39 -11 -36 -11 4 -11 1 -2 -15 13 -26 20 -19 39 37 13 39 17 43 32 32 8
-7 19 -31 23 -53 l7 -40 -28 30 c-15 17 -26 23 -23 15 3 -8 -8 -27 -23 -42
-15 -15 -28 -24 -28 -21 0 3 -8 -1 -17 -8 -15 -11 -16 -11 -5 1 14 17 16 50 2
50 -5 0 -10 -6 -10 -14 0 -8 -7 -16 -15 -20 -8 -3 -15 -1 -15 4 0 6 4 10 8 10
12 0 54 78 50 92 -3 7 -10 4 -21 -6 -19 -20 -41 -12 -32 11 4 13 3 13 -9 4
-18 -15 -59 -23 -51 -10 4 5 13 9 21 9 8 0 12 5 9 10 -3 6 3 10 14 10 22 0 30
20 9 21 -26 1 28 18 60 18 19 1 31 5 27 11 -4 6 1 7 11 3 13 -5 14 -8 5 -11z
m-611 4 c0 -3 -4 -8 -10 -11 -5 -3 -10 -1 -10 4 0 6 5 11 10 11 6 0 10 -2 10
-4z m777 -38 c-3 -8 -6 -5 -6 6 -1 11 2 17 5 13 3 -3 4 -12 1 -19z m-37 -15
c0 -19 -3 -24 -10 -17 -6 6 -8 18 -4 27 9 24 14 21 14 -10z m-786 9 c2 -4 0
-14 -6 -22 -8 -12 -9 -12 -5 2 3 9 1 19 -6 22 -9 3 -9 5 0 5 6 1 14 -3 17 -7z
m484 -34 c-18 -23 -27 -38 -19 -34 29 18 80 24 91 11 8 -9 8 -15 0 -20 -5 -3
-10 1 -10 10 0 13 -4 14 -20 5 -11 -6 -20 -7 -20 -3 0 4 -7 0 -15 -11 -7 -10
-18 -15 -23 -12 -6 3 -8 -2 -5 -14 5 -18 6 -18 32 -2 21 14 20 10 -9 -19 -19
-20 -39 -34 -45 -31 -5 3 -4 7 2 9 7 3 10 10 7 18 -3 8 -13 11 -22 8 -14 -5
-15 -3 -4 8 16 17 16 34 -1 23 -7 -5 -5 -2 5 8 10 9 18 20 18 25 0 9 58 63 67
63 3 0 -10 -19 -29 -42z m716 16 c17 -16 23 -110 7 -100 -5 3 -7 15 -4 26 3
12 -1 22 -11 26 -9 3 -16 14 -16 23 0 14 2 14 10 1 6 -9 10 -10 10 -3 0 6 -4
15 -10 18 -10 6 -14 25 -6 25 3 0 12 -7 20 -16z m-452 -31 c-2 -29 -1 -34 7
-23 9 13 11 13 11 -2 0 -26 -21 -33 -27 -8 -4 16 -8 18 -14 8 -7 -10 -9 -10
-9 0 0 11 28 62 34 62 1 0 0 -17 -2 -37z m59 6 c-9 -22 -10 -22 -10 -3 -1 11
2 24 6 27 12 12 14 0 4 -24z m30 8 c-10 -9 -11 -8 -5 6 3 10 9 15 12 12 3 -3
0 -11 -7 -18z m69 -39 c-19 -16 -21 -20 -9 -35 10 -11 10 -14 2 -9 -7 4 -18
17 -24 29 -7 12 -8 19 -4 15 5 -5 15 1 22 12 8 11 19 17 25 14 7 -5 3 -14 -12
-26z m-810 12 c0 -5 -5 -10 -11 -10 -5 0 -7 5 -4 10 3 6 8 10 11 10 2 0 4 -4
4 -10z m884 -34 c-3 -8 -13 -17 -22 -21 -13 -5 -13 -2 3 15 21 24 26 25 19 6z
m206 -26 c6 -11 8 -20 6 -20 -3 0 -10 9 -16 20 -6 11 -8 20 -6 20 3 0 10 -9
16 -20z m-1120 -6 c0 -8 -5 -12 -10 -9 -6 4 -8 11 -5 16 9 14 15 11 15 -7z
m469 -15 c-5 -3 -7 -14 -3 -25 6 -15 4 -17 -6 -7 -8 7 -10 22 -6 39 6 21 9 25
16 14 5 -9 5 -17 -1 -21z m335 13 c3 -5 -1 -9 -9 -9 -8 0 -12 4 -9 9 3 4 7 8
9 8 2 0 6 -4 9 -8z m-504 -28 c0 -20 -4 -25 -16 -20 -8 3 -13 2 -11 -2 3 -4
-1 -13 -9 -20 -23 -21 -17 9 8 41 27 33 28 33 28 1z m47 4 c-3 -8 -6 -5 -6 6
-1 11 2 17 5 13 3 -3 4 -12 1 -19z m323 -22 c-5 -15 -7 -33 -4 -39 3 -7 -3 -1
-14 13 -12 14 -18 27 -16 30 3 2 9 -2 13 -9 6 -9 10 -5 15 14 4 15 9 25 12 23
2 -3 0 -17 -6 -32z m520 12 c0 -19 -2 -20 -10 -8 -13 19 -13 30 0 30 6 0 10
-10 10 -22z m-620 -8 c0 -5 -2 -10 -4 -10 -3 0 -8 5 -11 10 -3 6 -1 10 4 10 6
0 11 -4 11 -10z m595 -8 c-3 -3 -11 0 -18 7 -9 10 -8 11 6 5 10 -3 15 -9 12
-12z m-818 -14 c-3 -8 -6 -5 -6 6 -1 11 2 17 5 13 3 -3 4 -12 1 -19z m205 -25
c-3 -16 -7 -22 -10 -15 -4 13 4 42 11 42 2 0 2 -12 -1 -27z m-242 7 c0 -5 -4
-10 -10 -10 -5 0 -10 5 -10 10 0 6 5 10 10 10 6 0 10 -4 10 -10z m1020 0 c0
-5 -5 -10 -11 -10 -5 0 -7 5 -4 10 3 6 8 10 11 10 2 0 4 -4 4 -10z m198 -45
c-3 -3 -13 7 -23 22 l-17 28 23 -22 c12 -12 20 -25 17 -28z m60 36 c2 -1 0 -6
-4 -12 -4 -7 -10 -7 -16 -1 -6 6 -18 8 -27 5 -13 -4 -13 -3 -2 5 11 8 24 9 49
3z m-1623 -21 c3 -5 1 -10 -4 -10 -6 0 -11 5 -11 10 0 6 2 10 4 10 3 0 8 -4
11 -10z m325 -27 c-11 -17 -11 -17 -6 0 3 10 6 24 7 30 0 9 2 9 5 0 3 -7 0
-20 -6 -30z m-358 5 c-7 -7 -12 -8 -12 -2 0 6 3 14 7 17 3 4 9 5 12 2 2 -3 -1
-11 -7 -17z m389 -24 c-7 -31 -9 -34 -10 -12 -1 27 9 62 15 55 3 -2 0 -22 -5
-43z m-115 -20 c-4 -9 -9 -15 -11 -12 -3 3 -3 13 1 22 4 9 9 15 11 12 3 -3 3
-13 -1 -22z m1297 11 c-3 -9 -8 -14 -10 -11 -3 3 -2 9 2 15 9 16 15 13 8 -4z
m-1217 -7 c4 -7 3 -8 -4 -4 -7 4 -12 3 -12 -2 0 -6 -8 -13 -17 -16 -15 -6 -15
-4 2 14 21 23 22 24 31 8z m1261 -80 c-3 -8 -6 -5 -6 6 -1 11 2 17 5 13 3 -3
4 -12 1 -19z m-345 -36 c-7 -5 -10 -16 -6 -25 7 -19 24 -23 24 -6 0 14 26 39
40 39 7 0 2 -8 -10 -18 -20 -16 -21 -21 -10 -42 10 -19 10 -22 -1 -18 -8 3
-23 2 -34 -3 -18 -7 -17 -8 7 -8 15 -1 30 -5 33 -11 4 -6 -1 -7 -12 -4 -13 4
-11 0 6 -14 19 -15 21 -21 10 -27 -8 -5 -11 -5 -7 0 10 11 -19 31 -73 49 -38
13 -41 13 -25 0 11 -7 25 -14 30 -14 6 0 4 -5 -4 -11 -13 -9 -13 -10 0 -8 30
3 50 -1 50 -10 0 -5 -16 -7 -36 -5 -23 3 -33 1 -29 -6 10 -17 -3 -40 -19 -34
-8 3 -17 12 -20 21 -4 11 -2 13 9 9 22 -8 18 2 -6 15 -27 14 -69 19 -69 8 0
-5 15 -10 33 -10 21 -1 25 -3 11 -6 -17 -3 -21 -9 -16 -26 5 -22 4 -22 -22 3
-15 13 -24 30 -22 37 3 7 1 13 -5 13 -7 0 -9 -13 -4 -36 6 -32 5 -35 -8 -22
-8 8 -17 23 -20 34 -3 14 -5 12 -6 -8 0 -14 5 -29 12 -31 6 -3 -3 -6 -20 -6
-18 -1 -33 4 -33 9 0 6 7 10 16 10 32 0 6 25 -39 38 -29 8 -47 19 -47 28 0 9
-5 12 -11 8 -7 -4 -10 -1 -7 7 3 10 27 15 82 17 44 2 74 7 71 12 -3 5 7 12 22
16 15 4 57 14 93 24 75 21 90 23 72 12z m-289 -39 c-7 -2 -21 -2 -30 0 -10 3
-4 5 12 5 17 0 24 -2 18 -5z m356 -36 c0 -21 -1 -21 -9 -2 -12 28 -12 37 0 30
6 -3 10 -16 9 -28z m-87 -99 c-9 -9 -12 -7 -12 12 0 19 3 21 12 12 9 -9 9 -15
0 -24z m-72 18 c0 -3 -4 -8 -10 -11 -5 -3 -10 -1 -10 4 0 6 5 11 10 11 6 0 10
-2 10 -4z m-283 -148 c-3 -8 -6 -5 -6 6 -1 11 2 17 5 13 3 -3 4 -12 1 -19z
m-261 -26 c-17 -16 -18 -16 -5 5 7 12 15 20 18 17 3 -2 -3 -12 -13 -22z m34 5
c0 -2 -12 -14 -27 -28 l-28 -24 24 28 c23 25 31 32 31 24z m442 -20 c3 -15 0
-24 -9 -24 -7 0 -13 11 -13 24 0 13 4 23 9 23 5 0 11 -10 13 -23z m-192 -7 c0
-11 -4 -20 -9 -20 -5 0 -7 9 -4 20 3 11 7 20 9 20 2 0 4 -9 4 -20z m30 -12 c0
-5 -4 -8 -10 -8 -5 0 -10 10 -10 23 0 18 2 19 10 7 5 -8 10 -18 10 -22z m47 0
c-3 -8 -6 -5 -6 6 -1 11 2 17 5 13 3 -3 4 -12 1 -19z m143 12 c0 -5 -2 -10 -4
-10 -3 0 -8 5 -11 10 -3 6 -1 10 4 10 6 0 11 -4 11 -10z m-470 -25 c-13 -14
-28 -25 -34 -25 -6 0 3 11 19 25 39 31 45 32 15 0z m-122 -55 c-7 -10 -14 -18
-15 -16 -6 6 9 36 18 36 5 0 4 -9 -3 -20z"/>
<path d="M2219 2148 c-1 -2 -3 -13 -4 -26 -2 -17 2 -22 12 -18 8 3 19 6 23 6
5 0 14 9 20 20 10 18 8 20 -20 20 -16 0 -31 -1 -31 -2z"/>
<path d="M1818 4310 c-10 -9 -18 -28 -18 -41 1 -21 3 -19 21 14 23 44 22 52
-3 27z"/>
<path d="M1916 4313 c-6 -14 -5 -15 5 -6 7 7 10 15 7 18 -3 3 -9 -2 -12 -12z"/>
<path d="M3280 4285 c0 -3 9 -22 20 -42 11 -21 20 -43 20 -49 0 -6 15 -31 33
-56 32 -46 32 -46 43 -23 9 19 9 22 -2 18 -13 -5 -19 8 -15 30 1 8 -88 127
-95 127 -2 0 -4 -2 -4 -5z"/>
<path d="M2840 4266 c0 -8 4 -17 9 -20 5 -4 7 3 4 14 -6 23 -13 26 -13 6z"/>
<path d="M1998 4260 c-4 -8 -9 -28 -13 -45 -6 -30 -6 -30 10 -7 9 12 15 32 12
45 -2 16 -5 18 -9 7z"/>
<path d="M2359 4249 c-8 -16 -8 -24 2 -33 9 -8 10 -8 5 1 -4 7 -2 22 4 33 6
11 8 20 6 20 -3 0 -10 -9 -17 -21z"/>
<path d="M2732 4245 c0 -16 2 -22 5 -12 2 9 2 23 0 30 -3 6 -5 -1 -5 -18z"/>
<path d="M2244 4225 c-3 -19 -10 -38 -15 -41 -5 -3 -9 -10 -9 -17 0 -28 33 25
36 57 4 46 -3 47 -12 1z"/>
<path d="M2790 4250 c0 -5 6 -10 13 -10 8 0 7 -3 -3 -10 -8 -5 -11 -12 -7 -16
12 -12 28 11 21 29 -7 18 -24 23 -24 7z"/>
<path d="M3360 4256 c0 -2 8 -10 18 -17 15 -13 16 -12 3 4 -13 16 -21 21 -21
13z"/>
<path d="M1766 4233 c-6 -14 -5 -15 5 -6 7 7 10 15 7 18 -3 3 -9 -2 -12 -12z"/>
<path d="M2658 4190 c-6 -54 -3 -60 9 -23 6 15 7 37 3 48 -5 15 -8 9 -12 -25z"/>
<path d="M1917 4209 c-9 -6 -17 -14 -17 -20 0 -5 -9 -19 -20 -31 -11 -12 -20
-30 -20 -40 0 -17 1 -17 20 -1 11 10 20 24 20 32 0 8 3 11 7 8 4 -4 13 7 20
24 15 37 14 41 -10 28z"/>
<path d="M2157 4203 c-12 -12 -7 -22 8 -17 8 4 15 10 15 15 0 11 -14 12 -23 2z"/>
<path d="M2720 4189 c0 -11 4 -18 10 -14 5 3 7 12 3 20 -7 21 -13 19 -13 -6z"/>
<path d="M2115 4189 c-4 -6 -5 -12 -2 -15 2 -3 7 2 10 11 7 17 1 20 -8 4z"/>
<path d="M1497 4183 c-4 -3 -7 -11 -7 -17 0 -6 5 -5 12 2 6 6 9 14 7 17 -3 3
-9 2 -12 -2z"/>
<path d="M3507 4156 c10 -13 22 -22 26 -19 9 6 -21 43 -35 43 -5 0 -1 -11 9
-24z"/>
<path d="M1777 4134 c-13 -18 -14 -22 -3 -18 8 3 17 13 20 21 10 25 3 23 -17
-3z"/>
<path d="M2680 4088 c1 -25 23 -61 33 -52 3 3 3 13 0 22 -4 15 -3 15 6 2 6 -8
11 -23 11 -32 0 -23 36 -24 44 -2 3 9 2 23 -4 32 -8 15 -9 14 -10 -6 0 -14 -4
-21 -11 -16 -6 3 -8 15 -6 26 3 11 0 21 -9 25 -8 3 -11 9 -8 14 3 5 1 9 -4 9
-5 0 -14 -10 -21 -22 l-12 -23 5 23 c2 12 0 22 -5 22 -5 0 -9 -10 -9 -22z"/>
<path d="M3530 4093 c0 -4 5 -15 10 -23 8 -13 10 -13 10 2 0 9 -4 20 -10 23
-5 3 -10 3 -10 -2z"/>
<path d="M2655 4080 c-3 -5 -1 -10 4 -10 6 0 11 5 11 10 0 6 -2 10 -4 10 -3 0
-8 -4 -11 -10z"/>
<path d="M2610 4070 c-13 -9 -13 -11 0 -20 15 -10 25 0 18 20 -2 6 -8 6 -18 0z"/>
<path d="M2932 4010 c0 -14 2 -19 5 -12 2 6 2 18 0 25 -3 6 -5 1 -5 -13z"/>
<path d="M2965 4010 c3 -5 8 -10 11 -10 2 0 4 5 4 10 0 6 -5 10 -11 10 -5 0
-7 -4 -4 -10z"/>
<path d="M3400 4001 c0 -5 5 -13 10 -16 6 -3 10 -2 10 4 0 5 -4 13 -10 16 -5
3 -10 2 -10 -4z"/>
<path d="M3520 3966 c0 -25 35 -76 52 -76 7 0 1 11 -11 24 -12 13 -21 27 -20
32 1 5 1 17 0 27 -2 26 -21 20 -21 -7z"/>
<path d="M1466 3953 c-6 -14 -5 -15 5 -6 7 7 10 15 7 18 -3 3 -9 -2 -12 -12z"/>
<path d="M2221 3946 c-8 -9 -8 -16 -2 -20 5 -4 15 2 21 11 11 17 11 17 6 1 -3
-10 -1 -18 4 -18 6 0 10 6 10 14 0 8 6 17 13 19 6 3 0 6 -14 6 -15 1 -32 -5
-38 -13z"/>
<path d="M2820 3950 c0 -5 5 -10 11 -10 5 0 7 5 4 10 -3 6 -8 10 -11 10 -2 0
-4 -4 -4 -10z"/>
<path d="M2149 3884 c-5 -15 -7 -29 -4 -32 3 -3 5 -1 5 5 0 6 12 8 28 6 19 -3
23 -2 13 5 -19 13 -4 34 20 27 11 -4 19 -2 19 4 0 6 -16 11 -35 11 -29 0 -37
-5 -46 -26z"/>
<path d="M1455 3890 c-3 -5 -1 -10 4 -10 6 0 11 5 11 10 0 6 -2 10 -4 10 -3 0
-8 -4 -11 -10z"/>
<path d="M1457 3846 c-4 -15 -6 -31 -2 -34 10 -10 16 6 13 35 l-3 28 -8 -29z"/>
<path d="M3570 3856 c0 -2 8 -10 18 -17 15 -13 16 -12 3 4 -13 16 -21 21 -21
13z"/>
<path d="M1800 3810 c0 -18 10 -25 33 -21 10 2 9 -13 -4 -26 -7 -7 -6 -12 5
-16 23 -9 21 34 -3 61 -23 27 -31 28 -31 2z"/>
<path d="M1865 3805 c0 -14 3 -25 8 -25 4 0 7 7 7 15 0 8 0 18 1 22 0 4 -3 9
-8 10 -4 2 -8 -8 -8 -22z"/>
<path d="M2315 3810 c1 -10 9 -28 18 -38 9 -10 17 -28 17 -40 0 -12 5 -22 11
-22 5 0 8 4 5 8 -3 5 -6 25 -8 45 -1 22 -7 37 -15 37 -7 0 -13 7 -13 15 0 8
-4 15 -8 15 -5 0 -8 -9 -7 -20z"/>
<path d="M1446 3775 c-3 -8 -1 -15 4 -15 5 0 6 -7 3 -17 -4 -11 -3 -14 5 -9
14 8 16 42 3 50 -5 3 -11 -1 -15 -9z"/>
<path d="M2460 3725 c1 -26 2 -28 11 -12 8 14 8 22 0 30 -8 8 -11 3 -11 -18z"/>
<path d="M1430 3685 c-7 -9 -11 -18 -8 -20 3 -3 11 1 18 10 7 9 11 18 8 20 -3
3 -11 -1 -18 -10z"/>
<path d="M3005 3680 c3 -5 15 -10 26 -10 11 0 17 5 14 10 -3 6 -15 10 -26 10
-11 0 -17 -4 -14 -10z"/>
<path d="M3060 3680 c0 -5 5 -10 11 -10 5 0 7 5 4 10 -3 6 -8 10 -11 10 -2 0
-4 -4 -4 -10z"/>
<path d="M3720 3573 c0 -23 5 -33 15 -33 18 0 18 8 0 40 l-14 25 -1 -32z"/>
<path d="M1740 3565 c-14 -16 -10 -18 14 -9 9 3 16 10 16 15 0 14 -16 11 -30
-6z"/>
<path d="M1645 3510 c-10 -11 -13 -20 -8 -20 13 0 38 29 31 35 -3 3 -13 -4
-23 -15z"/>
<path d="M3500 3521 c0 -5 5 -13 10 -16 6 -3 10 -2 10 4 0 5 -4 13 -10 16 -5
3 -10 2 -10 -4z"/>
<path d="M3731 3514 c0 -11 3 -14 6 -6 3 7 2 16 -1 19 -3 4 -6 -2 -5 -13z"/>
<path d="M1271 3474 c0 -11 3 -14 6 -6 3 7 2 16 -1 19 -3 4 -6 -2 -5 -13z"/>
<path d="M3655 3470 c4 -12 3 -25 -2 -29 -6 -4 -5 -29 3 -66 7 -33 13 -76 13
-95 1 -20 7 -42 14 -49 10 -11 10 -13 0 -7 -9 5 -13 1 -13 -11 0 -20 19 -54
21 -38 0 6 7 -3 15 -20 14 -28 14 -23 10 65 -2 52 -8 104 -12 114 -5 13 -4 17
4 12 8 -5 10 -2 6 8 -3 9 -10 13 -15 10 -6 -3 -7 5 -4 19 5 17 2 26 -9 30 -9
4 -16 14 -16 22 0 9 5 13 11 9 8 -5 8 -1 0 14 -17 31 -35 39 -26 12z"/>
<path d="M3741 3483 c-1 -6 -4 -20 -7 -30 -5 -17 -5 -17 6 0 6 10 9 23 6 30
-3 9 -5 9 -5 0z"/>
<path d="M1443 3448 c-6 -7 -16 -30 -22 -50 -14 -42 -29 -57 -40 -39 -4 7 -8
-9 -9 -34 -1 -25 2 -45 8 -45 18 0 11 -19 -20 -50 -16 -17 -30 -39 -30 -50 0
-10 -4 -21 -9 -24 -4 -3 -6 -18 -3 -33 2 -16 4 -74 3 -130 -1 -65 2 -103 9
-103 5 0 10 18 10 40 0 28 4 40 14 40 15 0 21 14 30 60 2 14 11 39 20 55 9 17
16 40 16 52 0 12 4 23 9 25 9 3 14 27 26 128 12 101 12 109 4 105 -9 -6 -6 36
5 53 10 16 -9 16 -21 0z m-96 -290 c-3 -8 -6 -5 -6 6 -1 11 2 17 5 13 3 -3 4
-12 1 -19z m8 -39 c-8 -25 4 -46 16 -28 4 7 11 10 15 6 4 -4 -1 -15 -10 -26
-10 -10 -16 -25 -15 -33 1 -7 -3 -24 -9 -38 -9 -21 -11 -15 -11 43 -1 38 -5
77 -11 87 -8 15 -6 17 10 13 15 -4 19 -11 15 -24z m28 16 c-3 -9 -8 -14 -10
-11 -3 3 -2 9 2 15 9 16 15 13 8 -4z"/>
<path d="M1262 3406 c-17 -39 -28 -151 -13 -141 7 4 11 16 8 26 -3 11 -1 16 4
13 6 -3 7 5 4 19 -4 14 -2 42 4 63 12 44 9 54 -7 20z"/>
<path d="M3742 3390 c0 -14 2 -19 5 -12 2 6 2 18 0 25 -3 6 -5 1 -5 -13z"/>
<path d="M1272 3270 c0 -14 2 -19 5 -12 2 6 2 18 0 25 -3 6 -5 1 -5 -13z"/>
<path d="M3380 3270 c20 -13 33 -13 25 0 -3 6 -14 10 -23 10 -15 0 -15 -2 -2
-10z"/>
<path d="M1340 3253 c0 -7 4 -13 9 -13 5 0 11 6 14 13 3 8 -1 14 -9 14 -8 0
-14 -6 -14 -14z"/>
<path d="M2636 3067 c3 -10 9 -15 12 -12 3 3 0 11 -7 18 -10 9 -11 8 -5 -6z"/>
<path d="M2575 3020 c-3 -5 1 -10 9 -10 9 0 16 5 16 10 0 6 -4 10 -9 10 -6 0
-13 -4 -16 -10z"/>
<path d="M3370 2916 c0 -2 7 -7 16 -10 8 -3 12 -2 9 4 -6 10 -25 14 -25 6z"/>
<path d="M1330 2848 c0 -4 4 -8 9 -8 6 0 12 4 15 8 3 5 -1 9 -9 9 -8 0 -15 -4
-15 -9z"/>
<path d="M2628 2843 c7 -3 16 -2 19 1 4 3 -2 6 -13 5 -11 0 -14 -3 -6 -6z"/>
<path d="M3128 2843 c7 -3 16 -2 19 1 4 3 -2 6 -13 5 -11 0 -14 -3 -6 -6z"/>
<path d="M1330 2819 c0 -11 27 -12 34 -1 2 4 -4 9 -15 9 -10 1 -19 -2 -19 -8z"/>
<path d="M3295 2740 c-3 -5 1 -10 10 -10 9 0 13 5 10 10 -3 6 -8 10 -10 10 -2
0 -7 -4 -10 -10z"/>
<path d="M2961 2535 c-1 -11 5 -29 13 -40 7 -11 16 -42 20 -69 9 -61 16 -77
27 -70 5 3 9 -1 9 -10 0 -8 -6 -16 -12 -19 -8 -3 -2 -9 13 -15 15 -6 29 -21
33 -36 3 -14 11 -26 17 -26 6 0 8 -9 4 -20 -4 -12 -1 -27 5 -35 7 -8 9 -15 5
-15 -4 0 -2 -6 4 -13 6 -8 7 -18 3 -22 -4 -5 -2 -5 4 -2 7 4 17 0 24 -8 7 -8
23 -15 36 -15 22 0 50 -31 38 -43 -3 -3 4 -8 15 -12 12 -4 18 -12 14 -21 -3
-9 6 -19 28 -29 19 -8 30 -15 24 -15 -5 0 -2 -7 8 -15 10 -7 24 -33 31 -57 7
-24 17 -44 22 -44 25 -4 54 -17 54 -25 0 -5 9 -9 20 -9 11 0 20 7 20 16 0 8
-4 13 -8 10 -4 -2 -14 -1 -22 4 -13 8 -13 11 -1 22 9 8 11 9 7 1 -3 -6 -2 -14
3 -18 6 -3 15 3 20 14 8 14 8 21 -2 24 -7 3 -5 6 6 6 19 1 22 12 6 28 -7 7 -8
17 -1 30 9 16 4 24 -29 52 -21 19 -36 37 -34 42 3 4 -4 14 -15 22 -11 8 -21
27 -22 43 -1 16 -13 37 -25 47 -13 10 -21 23 -18 28 4 5 -1 9 -9 9 -10 0 -13
7 -11 20 2 12 0 18 -6 14 -14 -8 -39 15 -33 31 3 7 -8 28 -25 46 -17 17 -31
36 -31 40 0 5 -9 9 -19 9 -11 0 -21 4 -23 8 -1 4 -18 18 -35 31 -18 12 -33 31
-33 41 0 12 -5 17 -14 14 -7 -3 -16 2 -19 10 -4 9 -17 16 -29 16 -27 0 -43 10
-51 30 -4 11 -6 9 -6 -5z m189 -380 c14 -19 14 -19 -2 -6 -10 7 -18 18 -18 24
0 6 1 8 3 6 1 -2 9 -13 17 -24z m266 -232 c-7 -7 -26 7 -26 19 0 6 6 6 15 -2
9 -7 13 -15 11 -17z"/>
<path d="M1850 2520 c0 -5 5 -10 10 -10 6 0 10 5 10 10 0 6 -4 10 -10 10 -5 0
-10 -4 -10 -10z"/>
<path d="M1920 2510 c-9 -16 -8 -18 5 -14 8 4 15 12 15 20 0 20 -7 17 -20 -6z"/>
<path d="M2580 2456 c0 -8 -6 -16 -12 -18 -7 -3 -2 -7 10 -10 17 -5 22 -2 22
12 0 11 -4 22 -10 25 -5 3 -10 0 -10 -9z"/>
<path d="M1500 2360 c-8 -5 -12 -11 -9 -14 2 -3 11 -1 19 4 8 5 12 11 9 14 -2
3 -11 1 -19 -4z"/>
<path d="M2860 2355 c-8 -9 -8 -15 -2 -15 12 0 26 19 19 26 -2 2 -10 -2 -17
-11z"/>
<path d="M1495 2256 c-14 -17 -17 -36 -4 -36 5 0 7 -5 3 -12 -5 -7 -3 -8 5 -3
7 4 11 16 8 26 -3 10 0 20 6 22 7 2 7 6 2 9 -6 3 -14 1 -20 -6z"/>
<path d="M3010 2201 c0 -6 4 -13 10 -16 6 -3 7 1 4 9 -7 18 -14 21 -14 7z"/>
<path d="M2997 2153 c4 -10 2 -14 -4 -10 -9 6 -10 -8 -4 -46 0 -5 5 -6 9 -3 5
3 32 -9 62 -26 41 -23 50 -32 39 -40 -11 -8 -10 -9 4 -4 20 6 22 -5 5 -22 -10
-10 -7 -17 12 -35 14 -13 18 -15 10 -4 -8 11 -10 21 -4 25 16 12 15 40 -3 47
-15 7 -13 9 12 16 l30 8 -30 -2 c-17 -1 -44 8 -60 20 -17 11 -32 21 -35 22 -3
1 -15 4 -27 7 -13 4 -20 11 -16 20 4 12 8 12 21 2 12 -10 11 -7 -2 15 -21 31
-28 35 -19 10z"/>
<path d="M3087 2119 c7 -9 10 -19 6 -22 -3 -4 -1 -7 5 -7 17 0 15 16 -5 31
-16 12 -17 12 -6 -2z"/>
<path d="M1510 2111 c0 -6 4 -13 10 -16 6 -3 7 1 4 9 -7 18 -14 21 -14 7z"/>
<path d="M3478 2083 c7 -3 16 -2 19 1 4 3 -2 6 -13 5 -11 0 -14 -3 -6 -6z"/>
<path d="M3497 2053 c-4 -3 -7 -13 -7 -21 0 -12 3 -12 15 -2 8 7 15 16 15 21
0 11 -14 12 -23 2z"/>
<path d="M1497 2035 c-4 -8 -3 -16 1 -19 4 -3 9 4 9 15 2 23 -3 25 -10 4z"/>
<path d="M3015 2040 c3 -5 8 -10 11 -10 2 0 4 5 4 10 0 6 -5 10 -11 10 -5 0
-7 -4 -4 -10z"/>
<path d="M3177 2033 c-10 -9 -9 -23 1 -23 5 0 9 7 9 15 0 17 -1 18 -10 8z"/>
<path d="M3069 2007 c6 -8 9 -17 6 -21 -3 -3 0 -2 6 3 12 10 4 31 -13 31 -7 0
-7 -4 1 -13z"/>
<path d="M1513 1985 c0 -8 4 -12 9 -9 5 3 6 10 3 15 -9 13 -12 11 -12 -6z"/>
<path d="M3505 1989 c-4 -6 -5 -12 -2 -15 2 -3 7 2 10 11 7 17 1 20 -8 4z"/>
<path d="M3275 1970 c10 -11 20 -18 23 -15 7 6 -18 35 -31 35 -5 0 -2 -9 8
-20z"/>
<path d="M3450 1965 c0 -2 9 -9 20 -15 16 -9 18 -8 14 5 -5 13 -34 22 -34 10z"/>
<path d="M3470 1890 c10 -6 11 -10 3 -10 -7 0 -13 -5 -13 -11 0 -5 4 -8 9 -5
5 3 11 -1 15 -9 3 -8 10 -15 15 -15 5 0 3 14 -5 30 -9 17 -21 30 -27 30 -7 0
-6 -4 3 -10z"/>
<path d="M3288 1864 c-8 -8 3 -44 13 -44 5 0 8 9 6 20 -4 23 -11 32 -19 24z"/>
<path d="M3330 1863 c0 -4 5 -15 10 -23 8 -13 10 -13 10 2 0 9 -4 20 -10 23
-5 3 -10 3 -10 -2z"/>
<path d="M3378 1833 c-7 -36 -4 -61 8 -56 10 4 11 10 3 24 -10 20 4 28 16 9 3
-5 14 -10 23 -9 11 0 12 2 4 6 -6 2 -9 10 -6 15 4 6 2 8 -4 4 -6 -3 -13 -2
-17 4 -7 12 -24 13 -27 3z"/>
<path d="M3496 1811 c-3 -5 2 -15 12 -22 15 -12 16 -12 5 2 -7 9 -10 19 -6 22
3 4 4 7 0 7 -3 0 -8 -4 -11 -9z"/>
<path d="M1660 1740 c0 -5 5 -10 11 -10 5 0 7 5 4 10 -3 6 -8 10 -11 10 -2 0
-4 -4 -4 -10z"/>
<path d="M1720 1741 c0 -6 1 -13 3 -15 1 -2 -7 -13 -17 -25 -23 -25 -10 -27
24 -4 24 16 24 16 11 0 -11 -14 -11 -17 0 -17 7 0 3 -11 -12 -26 l-24 -27 29
19 c41 26 58 27 46 3 -7 -13 -7 -19 0 -19 5 0 10 6 11 13 0 6 5 3 10 -8 8 -17
9 -17 4 5 -3 14 -8 44 -11 68 -7 45 -14 51 -34 27 -7 -8 -20 -15 -29 -15 -13
0 -13 2 -2 9 9 6 10 11 2 15 -6 4 -11 2 -11 -3z"/>
<path d="M1585 1720 c4 -6 11 -8 16 -5 14 9 11 15 -7 15 -8 0 -12 -5 -9 -10z"/>
<path d="M1621 1714 c0 -11 3 -14 6 -6 3 7 2 16 -1 19 -3 4 -6 -2 -5 -13z"/>
<path d="M1857 1675 c3 -9 -2 -24 -12 -35 -16 -18 -16 -18 4 -13 15 4 21 13
21 34 0 16 -4 29 -10 29 -5 0 -7 -7 -3 -15z"/>
<path d="M3225 1670 c3 -5 8 -10 11 -10 2 0 4 5 4 10 0 6 -5 10 -11 10 -5 0
-7 -4 -4 -10z"/>
<path d="M1630 1650 c-13 -8 -12 -10 3 -10 9 0 17 5 17 10 0 12 -1 12 -20 0z"/>
<path d="M1727 1615 c-8 -8 -18 -11 -22 -7 -5 4 -5 1 -1 -6 6 -11 12 -10 27 4
10 9 19 19 19 21 0 7 -9 2 -23 -12z"/>
<path d="M1761 1606 c-9 -11 -9 -16 0 -22 8 -4 9 -3 5 4 -4 7 -2 12 3 12 15 0
14 -23 -1 -38 -16 -16 4 -16 21 1 11 10 13 9 7 -6 -3 -10 -6 -21 -6 -23 0 -2
-6 -4 -13 -4 -8 0 -24 -9 -37 -20 -13 -11 -19 -20 -15 -20 5 0 17 7 27 17 20
18 25 4 8 -28 -8 -14 -7 -19 1 -19 9 0 9 -3 0 -14 -9 -11 -9 -16 0 -22 8 -4 9
-3 5 4 -4 7 -2 12 4 12 6 0 10 6 8 14 -2 8 12 25 31 38 19 13 37 30 39 38 5
13 3 13 -12 1 -9 -8 -16 -10 -15 -5 3 13 -33 94 -41 94 -4 0 -13 -6 -19 -14z
m40 -109 c-13 -13 -26 -3 -16 12 3 6 11 8 17 5 6 -4 6 -10 -1 -17z"/>
<path d="M1835 1600 c-10 -11 -16 -22 -13 -25 3 -3 13 4 23 15 10 11 16 22 13
25 -3 3 -13 -4 -23 -15z"/>
<path d="M3285 1600 c-3 -5 -1 -10 4 -10 6 0 11 5 11 10 0 6 -2 10 -4 10 -3 0
-8 -4 -11 -10z"/>
<path d="M3356 1587 c3 -10 9 -15 12 -12 3 3 0 11 -7 18 -10 9 -11 8 -5 -6z"/>
<path d="M1856 1574 c-8 -21 -8 -21 7 -27 7 -3 13 3 14 14 2 24 -13 34 -21 13z"/>
<path d="M1625 1570 c3 -5 8 -10 11 -10 2 0 4 5 4 10 0 6 -5 10 -11 10 -5 0
-7 -4 -4 -10z"/>
<path d="M1725 1560 c-3 -5 -1 -10 4 -10 6 0 11 5 11 10 0 6 -2 10 -4 10 -3 0
-8 -4 -11 -10z"/>
<path d="M3356 1535 c4 -8 1 -15 -6 -15 -6 0 -8 -4 -5 -10 8 -14 34 11 28 27
-3 7 -9 13 -14 13 -4 0 -6 -7 -3 -15z"/>
<path d="M3449 1523 c-7 -16 -13 -23 -16 -15 -3 6 -9 12 -15 12 -6 0 -6 -6 2
-15 7 -8 15 -13 19 -11 8 5 31 -20 25 -28 -2 -3 2 -2 8 4 9 8 9 13 0 22 -17
17 -15 29 3 22 8 -4 15 -1 15 5 0 6 -5 11 -11 11 -5 0 -7 5 -4 10 3 6 1 10 -5
10 -6 0 -15 -12 -21 -27z"/>
<path d="M1818 1465 c-10 -13 -15 -30 -12 -38 3 -8 1 -18 -5 -22 -6 -3 -11
-14 -11 -23 0 -13 2 -13 15 4 14 18 14 17 4 -11 -8 -24 -8 -28 2 -17 7 6 14
29 15 50 0 20 5 45 9 55 11 27 2 28 -17 2z"/>
<path d="M3280 1476 c0 -2 7 -7 16 -10 8 -3 12 -2 9 4 -6 10 -25 14 -25 6z"/>
<path d="M3333 1455 c0 -8 4 -15 9 -15 4 0 8 4 8 9 0 6 -4 12 -8 15 -5 3 -9
-1 -9 -9z"/>
<path d="M1874 1439 c-17 -19 -19 -19 -25 -2 -7 16 -8 16 -8 1 -1 -28 15 -29
39 -3 13 14 21 25 18 25 -3 0 -13 -9 -24 -21z"/>
<path d="M3070 1450 c-12 -8 -10 -10 8 -10 13 0 20 4 17 10 -7 12 -6 12 -25 0z"/>
<path d="M1705 1440 c-3 -5 -1 -10 4 -10 6 0 11 5 11 10 0 6 -2 10 -4 10 -3 0
-8 -4 -11 -10z"/>
<path d="M3198 1433 c7 -3 16 -2 19 1 4 3 -2 6 -13 5 -11 0 -14 -3 -6 -6z"/>
<path d="M3240 1420 c0 -5 5 -10 11 -10 5 0 7 5 4 10 -3 6 -8 10 -11 10 -2 0
-4 -4 -4 -10z"/>
<path d="M1890 1410 c-9 -6 -10 -10 -3 -10 6 0 15 5 18 10 8 12 4 12 -15 0z"/>
<path d="M1842 1389 c0 -8 -3 -27 -5 -44 -4 -25 -3 -27 8 -12 6 9 16 13 21 9
4 -4 3 1 -4 10 -11 14 -10 16 6 11 11 -2 23 1 27 7 5 8 1 11 -11 8 -11 -2 -24
3 -30 10 -9 12 -11 12 -12 1z"/>
<path d="M3446 1364 c-23 -23 -20 -30 4 -9 11 10 20 20 20 22 0 7 -9 2 -24
-13z"/>
<path d="M3019 1363 c-1 -5 -1 -12 0 -16 1 -5 -8 -6 -19 -2 -11 4 -20 2 -20
-4 0 -6 13 -11 29 -11 24 0 28 3 24 20 -5 20 -12 26 -14 13z"/>
<path d="M3255 1361 c-6 -11 13 -26 22 -17 4 3 1 6 -6 6 -7 0 -9 5 -6 10 3 6
4 10 1 10 -3 0 -7 -4 -11 -9z"/>
<path d="M3066 1286 c6 -17 34 -30 34 -16 0 5 -9 14 -20 20 -16 8 -18 8 -14
-4z"/>
<path d="M1839 1273 c-13 -16 -12 -17 4 -4 16 13 21 21 13 21 -2 0 -10 -8 -17
-17z"/>
<path d="M3494 1243 c2 -10 -7 -25 -18 -35 -21 -17 -21 -17 -1 -18 15 0 17 -2
6 -9 -11 -7 -10 -11 5 -21 16 -10 16 -11 2 -6 -12 3 -18 0 -18 -9 0 -8 -5 -15
-11 -15 -5 0 -7 4 -4 10 3 6 -1 7 -10 4 -13 -5 -13 -9 -3 -22 11 -14 9 -14
-14 1 -30 19 -42 22 -33 8 3 -5 -3 -11 -12 -13 -16 -3 -15 -6 6 -27 16 -16 19
-22 8 -18 -10 4 -17 2 -17 -4 0 -6 -7 -9 -14 -6 -10 4 -13 1 -9 -9 3 -7 10
-14 16 -14 6 0 7 -3 4 -6 -4 -4 -18 1 -31 10 -25 16 -25 15 -23 -12 1 -18 -2
-26 -12 -24 -8 2 -11 -3 -8 -13 4 -8 2 -15 -3 -15 -6 0 -10 -11 -10 -24 0 -13
-7 -26 -15 -30 -8 -3 -15 -10 -15 -16 0 -6 5 -8 11 -4 7 4 9 0 5 -14 -7 -20
-31 -101 -67 -227 -48 -166 -66 -201 -127 -257 -51 -46 -115 -75 -202 -94 -66
-13 -74 -13 -90 1 -23 21 -34 63 -21 79 7 9 7 16 -1 24 -9 9 -9 12 0 12 9 0
11 10 6 35 -4 22 -2 41 5 49 10 11 8 16 -5 24 -11 6 -15 17 -11 31 3 11 1 21
-4 21 -16 0 -22 -29 -10 -44 16 -19 5 -41 -21 -43 -12 -1 -26 -9 -30 -18 -6
-9 -14 -12 -21 -8 -7 5 -21 8 -32 8 -16 0 -19 6 -17 27 2 20 -2 28 -13 28 -8
0 -15 9 -15 21 0 13 4 18 12 13 8 -5 9 -2 4 11 -6 16 -4 16 11 4 9 -8 14 -9
10 -2 -4 6 -3 14 3 18 6 3 10 -4 10 -17 1 -23 1 -23 17 -3 15 20 15 20 11 -1
-4 -14 1 -25 14 -33 25 -16 39 -4 15 13 -19 14 -24 42 -5 30 6 -4 8 -3 4 4 -3
6 -2 13 4 17 5 3 10 -3 10 -14 0 -24 8 -26 33 -6 12 9 17 20 13 33 -5 14 -1
21 14 25 11 3 18 1 15 -3 -3 -5 -1 -11 5 -15 6 -3 13 1 16 10 5 12 9 13 20 4
20 -17 17 -1 -6 28 -11 14 -20 20 -20 13 0 -7 -7 -10 -15 -6 -8 3 -15 0 -15
-7 0 -8 -3 -8 -9 2 -7 11 -9 11 -14 0 -3 -8 -6 -2 -6 13 -1 15 -5 30 -11 33
-6 4 -7 -5 -4 -23 4 -17 1 -32 -5 -36 -6 -4 -11 -1 -11 6 0 9 -3 9 -10 -2 -8
-12 -10 -11 -10 8 0 12 -5 22 -11 22 -6 0 -9 7 -5 15 3 8 1 15 -4 15 -5 0 -11
-8 -14 -17 -3 -10 -4 -6 -2 10 2 15 -1 27 -5 27 -5 0 -9 -12 -9 -27 -1 -24 -2
-26 -11 -10 -5 9 -7 21 -4 27 8 14 -16 49 -31 43 -9 -3 -9 -11 2 -31 8 -15 14
-36 13 -47 0 -13 -6 -7 -16 18 l-15 37 -25 -26 c-16 -17 -28 -23 -34 -17 -12
12 -1 45 12 37 5 -3 9 0 9 5 0 6 -10 9 -22 7 -13 -1 -23 -10 -23 -18 0 -23
-25 -48 -40 -41 -8 2 -14 8 -13 11 0 4 0 15 -1 26 -1 15 -4 16 -16 6 -8 -7
-15 -18 -15 -26 0 -7 -5 -16 -12 -20 -8 -5 -9 -1 -5 12 7 18 6 18 -9 -1 -16
-20 -16 -20 -10 1 6 19 3 21 -23 20 -17 -1 -37 -10 -46 -21 -14 -19 -15 -19
-5 7 6 18 6 29 0 33 -6 4 -10 1 -10 -4 0 -17 -40 -13 -46 4 -4 8 -10 12 -15 9
-5 -3 -9 0 -9 6 0 6 -7 18 -15 27 -12 12 -19 13 -30 3 -8 -7 -15 -9 -15 -4 0
5 -4 2 -9 -5 -8 -12 -11 -9 -16 11 -5 21 -12 26 -33 23 l-27 -3 23 15 c12 9
22 21 22 28 0 20 -28 26 -44 10 -22 -23 -37 -19 -27 8 6 15 4 26 -5 35 -8 7
-14 9 -14 4 0 -6 -12 -12 -26 -15 -18 -3 -22 -1 -15 6 15 15 14 24 -5 31 -8 3
-12 2 -9 -4 3 -6 -1 -10 -9 -10 -8 0 -19 -7 -24 -17 -6 -9 -16 -14 -25 -10
-14 5 -13 10 4 43 18 37 17 63 -1 34 -6 -9 -10 -10 -10 -3 0 6 5 15 10 18 6 3
10 11 10 18 0 6 -10 2 -22 -10 -16 -17 -19 -25 -10 -35 6 -8 7 -19 2 -27 -6
-10 -12 -1 -20 30 -7 24 -17 55 -23 69 -6 14 -10 28 -9 33 3 12 -33 8 -47 -5
-11 -11 -13 -10 -8 5 7 18 -8 24 -18 7 -3 -5 -16 -15 -28 -20 -16 -8 -14 -4 8
15 l30 27 -27 -5 c-32 -5 -34 1 -13 29 19 25 19 40 0 24 -8 -7 -15 -9 -15 -5
0 4 -7 2 -15 -5 -12 -10 -15 -9 -15 6 0 13 -3 15 -11 7 -8 -8 -8 -17 0 -31 17
-33 12 -74 -14 -117 -26 -42 -32 -60 -15 -50 5 3 5 -7 -1 -25 -6 -16 -13 -30
-16 -30 -3 0 -2 7 1 16 12 31 -21 -4 -34 -36 -7 -16 -16 -28 -20 -25 -5 3 -6
-4 -3 -15 6 -23 14 -25 31 -8 14 14 16 0 3 -21 -5 -7 -13 -11 -19 -7 -11 7
-54 -56 -56 -82 -1 -10 -7 -27 -13 -38 -7 -12 -9 -24 -6 -28 3 -3 1 -6 -5 -6
-6 0 -20 -24 -30 -52 -11 -29 -27 -67 -36 -84 -9 -16 -17 -41 -18 -55 -2 -13
-9 -31 -17 -39 -9 -10 -10 -15 -2 -18 6 -2 11 -8 11 -14 0 -6 -6 -8 -13 -5 -7
3 -19 -3 -25 -14 -12 -19 -7 -49 9 -49 4 0 6 -7 3 -15 -4 -8 -10 -15 -16 -15
-5 0 -6 4 -3 10 3 5 1 10 -4 10 -11 0 -15 -13 -12 -37 1 -9 -6 -10 -26 -3 -15
5 -37 8 -48 8 -11 -1 -44 -1 -73 0 -59 2 -59 3 -26 77 7 17 18 49 24 72 5 22
22 67 36 98 14 32 23 64 20 72 -4 9 -1 11 6 7 8 -5 9 -2 5 9 -3 9 -3 16 1 16
18 -3 26 2 14 9 -9 6 -4 20 22 53 18 24 48 73 67 109 31 62 118 198 169 268
40 54 16 45 -51 -18 -35 -33 -67 -60 -72 -60 -5 0 1 9 14 20 13 10 19 19 13
20 -14 0 -44 -33 -44 -48 0 -7 -6 -12 -14 -12 -8 0 -17 -12 -20 -26 -4 -14
-15 -45 -26 -68 -10 -22 -21 -57 -25 -76 -12 -64 -16 -71 -35 -65 -13 4 -21
-3 -33 -33 -9 -22 -22 -42 -30 -45 -12 -4 -11 4 4 43 10 26 15 50 12 54 -11
11 -53 -37 -53 -60 0 -13 -14 -36 -33 -53 -17 -17 -26 -31 -19 -31 9 0 7 -10
-8 -31 -14 -19 -20 -39 -17 -55 2 -13 0 -24 -5 -24 -5 0 -6 -5 -3 -10 8 -13
-34 -49 -57 -50 -10 0 -18 -5 -18 -12 0 -18 -13 0 -17 22 -2 17 1 19 21 14 13
-3 27 -1 30 4 10 16 -5 44 -20 38 -8 -3 -14 -1 -14 4 0 9 15 14 33 11 4 -1 10
7 14 16 3 10 17 30 31 46 14 15 20 27 13 27 -7 0 -3 9 9 22 11 12 21 25 21 30
8 48 68 136 83 120 5 -4 7 2 5 13 -2 11 -1 25 3 30 27 43 69 127 65 131 -2 2
-33 -25 -68 -61 -35 -36 -67 -65 -72 -65 -5 0 1 9 14 19 13 11 20 23 16 28 -5
4 -15 -1 -23 -12 -15 -21 -34 -43 -56 -62 -7 -7 -19 -19 -27 -28 -7 -9 -16
-14 -19 -11 -3 3 2 14 11 24 20 21 22 32 6 32 -5 0 -19 -20 -30 -45 -20 -44
-39 -59 -39 -30 0 19 -10 19 -38 -1 -12 -8 -22 -23 -22 -33 0 -26 -26 -46 -42
-33 -9 7 -23 6 -48 -4 -26 -11 -31 -17 -21 -24 16 -9 41 -3 41 11 0 5 5 9 12
9 6 0 8 -3 5 -7 -4 -3 -1 -13 6 -21 10 -13 9 -15 -7 -9 -11 5 -32 -1 -55 -15
-43 -26 -60 -47 -61 -70 0 -10 -5 -18 -11 -18 -5 0 -8 -4 -5 -9 3 -5 -8 -14
-26 -20 -36 -13 -63 -14 -33 -2 11 5 26 22 34 37 7 16 18 37 23 47 15 29 6 28
-30 -4 -30 -27 -43 -47 -22 -34 6 3 10 1 10 -4 0 -6 -7 -11 -15 -11 -17 0 -56
-40 -49 -51 2 -4 -13 -13 -34 -18 -20 -6 -46 -17 -57 -25 -29 -22 -37 -19 -24
7 l12 22 -20 -20 c-11 -11 -19 -23 -17 -26 3 -5 -131 -74 -145 -74 -4 0 -15
-8 -24 -17 -10 -9 -44 -36 -77 -59 -61 -43 -72 -53 -45 -43 11 5 13 2 9 -10
-10 -26 12 -18 32 12 10 15 19 30 19 34 0 12 74 57 147 89 40 17 76 36 79 42
4 5 12 6 18 3 6 -4 19 1 29 12 9 11 28 23 42 27 21 5 22 4 7 -5 -9 -6 -14 -16
-11 -22 5 -7 1 -9 -9 -5 -11 4 -14 2 -10 -9 3 -7 1 -14 -5 -14 -6 0 -9 -11 -7
-25 1 -14 -2 -28 -6 -31 -5 -3 -9 2 -9 10 0 23 -14 20 -25 -6 -11 -24 -35 -36
-35 -18 0 6 4 9 8 6 5 -3 14 11 20 31 11 36 11 36 -9 15 -10 -12 -19 -25 -19
-30 0 -5 -11 -19 -25 -32 -26 -25 -32 -40 -15 -40 6 0 10 7 10 16 0 9 5 12 12
8 8 -5 6 -12 -8 -23 -10 -9 -25 -27 -32 -41 -15 -28 -80 -78 -108 -83 -11 -1
-24 -6 -31 -10 -9 -5 -9 0 -3 23 8 28 7 29 -11 19 -12 -6 -18 -17 -15 -27 6
-19 -9 -50 -19 -40 -4 3 -20 2 -36 -4 -21 -7 -29 -17 -29 -33 0 -13 -7 -25
-15 -29 -8 -3 -15 -12 -15 -21 0 -13 25 -15 184 -15 l184 0 5 29 c3 16 27 73
53 128 91 189 103 218 109 248 l5 30 -11 -27 c-6 -16 -15 -28 -20 -28 -11 0
16 56 39 83 19 22 36 22 28 1 -6 -15 -4 -15 18 0 14 9 29 16 33 16 14 -1 -38
-40 -53 -40 -9 0 -13 -12 -12 -35 1 -19 -6 -43 -14 -52 -16 -18 -148 -328
-148 -347 0 -3 39 -6 88 -6 92 1 114 9 126 48 4 12 11 22 16 22 5 0 11 8 13
17 3 12 5 8 6 -9 0 -14 -4 -28 -11 -30 -6 -2 -12 -14 -13 -26 l-2 -22 1144 0
1143 0 6 30 c4 18 13 30 22 30 8 0 12 -3 9 -7 -4 -3 -2 -12 5 -20 9 -11 8 -13
-2 -11 -7 2 -15 -3 -17 -9 -4 -10 45 -13 222 -13 193 0 226 2 222 14 -3 8 -2
16 2 18 5 2 12 14 16 27 5 17 4 21 -5 16 -9 -5 -9 -2 -1 11 10 18 61 229 61
253 0 6 -4 11 -10 11 -5 0 -10 -16 -10 -36 0 -59 -25 -36 -26 24 -1 28 -5 59
-9 69 -19 44 -25 186 -8 169 4 -4 14 -40 21 -79 24 -127 32 -150 27 -77 -2 36
-7 88 -11 115 -3 28 -3 47 1 43 4 -4 11 -33 15 -65 5 -32 13 -74 18 -93 l9
-35 7 40 c4 26 2 54 -8 82 -8 22 -12 44 -9 47 3 3 0 12 -7 21 -8 10 -9 15 -1
15 6 0 11 5 11 11 0 5 -4 7 -10 4 -10 -6 -11 -4 -16 53 -1 18 -8 39 -14 47 -8
9 -8 15 -2 15 5 0 9 11 8 25 0 14 -4 25 -8 25 -4 0 -7 12 -6 28 0 15 -6 48
-14 74 -14 43 -14 46 1 41 15 -6 15 -5 0 13 -15 18 -35 94 -46 179 -3 22 -12
52 -19 67 -8 15 -12 39 -10 53 3 13 1 27 -4 30 -4 3 -7 -3 -6 -12z m23 -195
c-3 -8 -6 -5 -6 6 -1 11 2 17 5 13 3 -3 4 -12 1 -19z m20 -100 c-3 -8 -6 -5
-6 6 -1 11 2 17 5 13 3 -3 4 -12 1 -19z m-1497 -63 c-7 -9 -15 -13 -18 -10 -3
2 1 11 8 20 7 9 15 13 18 10 3 -2 -1 -11 -8 -20z m1517 -37 c-3 -7 -5 -2 -5
12 0 14 2 19 5 13 2 -7 2 -19 0 -25z m-24 -69 c-6 -6 -10 1 -10 23 0 30 1 30
10 10 7 -15 7 -26 0 -33z m45 -39 c0 -22 -1 -22 -8 5 -4 17 -8 39 -8 50 0 16
2 15 8 -5 4 -14 8 -36 8 -50z m-1438 51 c0 -5 -9 -11 -21 -14 -16 -4 -18 -3
-8 9 13 16 29 19 29 5z m-540 -52 c-11 -28 -22 -54 -26 -58 -4 -3 -4 3 0 14 5
11 12 32 16 47 9 29 19 48 25 48 2 0 -5 -23 -15 -51z m-570 -25 c0 -8 -4 -12
-10 -9 -5 3 -10 1 -10 -6 0 -7 -3 -9 -6 -6 -4 4 -1 13 6 22 16 19 20 19 20 -1z
m290 -14 c-6 -11 -15 -20 -19 -20 -5 0 -7 9 -4 20 3 11 12 20 20 20 11 0 11
-4 3 -20z m-208 -42 c-11 -24 -21 -35 -21 -25 -1 21 28 81 36 74 2 -3 -4 -25
-15 -49z m2448 5 c0 -21 -3 -24 -9 -14 -5 8 -7 20 -4 28 8 21 13 15 13 -14z
m38 -28 c0 -16 -2 -15 -8 5 -11 34 -11 60 0 35 5 -11 8 -29 8 -40z m-2038 -5
c0 -5 -5 -10 -11 -10 -5 0 -7 5 -4 10 3 6 8 10 11 10 2 0 4 -4 4 -10z m1177
-12 c-3 -8 -6 -5 -6 6 -1 11 2 17 5 13 3 -3 4 -12 1 -19z m-1806 -31 c-10 -9
-11 -8 -5 6 3 10 9 15 12 12 3 -3 0 -11 -7 -18z m1658 -42 c0 -11 -3 -14 -6
-7 -3 9 -9 10 -18 2 -9 -8 -14 -6 -17 7 -4 14 1 18 19 18 17 0 23 -5 22 -20z
m21 -39 c0 -8 -4 -18 -10 -21 -5 -3 -10 3 -10 14 0 12 5 21 10 21 6 0 10 -6
10 -14z m-1575 -6 c3 -5 1 -10 -4 -10 -6 0 -11 5 -11 10 0 6 2 10 4 10 3 0 8
-4 11 -10z m145 -38 c0 -5 -13 -18 -30 -30 -37 -28 -39 -20 -4 13 29 27 34 29
34 17z m270 -162 c0 -5 -2 -10 -4 -10 -3 0 -8 5 -11 10 -3 6 -1 10 4 10 6 0
11 -4 11 -10z m-1150 -55 c-7 -8 -17 -15 -22 -15 -6 0 -5 7 2 15 7 8 17 15 22
15 6 0 5 -7 -2 -15z m104 -131 c-11 -7 -25 -18 -31 -24 -9 -8 -13 -8 -13 0 0
16 54 60 59 48 2 -6 -5 -17 -15 -24z m430 5 c-3 -5 -10 -7 -15 -4 -5 4 -13 -4
-17 -16 -7 -18 -10 -19 -15 -7 -8 23 24 60 40 46 7 -6 10 -14 7 -19z m845 22
c25 -16 1 -31 -47 -30 -28 1 -37 4 -22 6 14 3 29 11 33 19 9 16 17 17 36 5z
m-579 -71 c-17 -22 -36 -42 -41 -45 -12 -8 32 68 46 77 26 19 24 5 -5 -32z
m-850 5 c-7 -9 -15 -13 -19 -10 -3 3 1 10 9 15 21 14 24 12 10 -5z m2784 -7
c-7 -10 -24 -10 -24 0 0 5 7 9 15 9 8 0 12 -4 9 -9z m-7 -40 c-3 -8 -6 -5 -6
6 -1 11 2 17 5 13 3 -3 4 -12 1 -19z"/>
<path d="M1866 1213 c-6 -14 -5 -15 5 -6 7 7 10 15 7 18 -3 3 -9 -2 -12 -12z"/>
<path d="M3560 1219 c0 -5 5 -7 10 -4 6 3 10 8 10 11 0 2 -4 4 -10 4 -5 0 -10
-5 -10 -11z"/>
<path d="M3607 1219 c7 -7 15 -10 18 -7 3 3 -2 9 -12 12 -14 6 -15 5 -6 -5z"/>
<path d="M2107 1209 c7 -7 15 -10 18 -7 3 3 -2 9 -12 12 -14 6 -15 5 -6 -5z"/>
<path d="M3667 1199 c7 -7 15 -10 18 -7 3 3 -2 9 -12 12 -14 6 -15 5 -6 -5z"/>
<path d="M2564 1185 c1 -8 6 -18 11 -22 4 -4 5 -2 1 5 -4 7 -1 12 8 12 8 0 18
5 21 10 3 6 -5 10 -19 10 -16 0 -23 -5 -22 -15z"/>
<path d="M1681 1174 c0 -11 3 -14 6 -6 3 7 2 16 -1 19 -3 4 -6 -2 -5 -13z"/>
<path d="M3580 1182 c0 -12 19 -26 26 -19 2 2 -2 10 -11 17 -9 8 -15 8 -15 2z"/>
<path d="M2140 1166 c0 -8 -6 -16 -12 -19 -7 -2 -10 -7 -7 -11 3 -3 15 5 27
19 17 19 18 25 7 25 -8 0 -15 -6 -15 -14z"/>
<path d="M2155 1138 c-15 -15 -20 -25 -12 -22 8 3 18 0 23 -7 4 -8 3 -10 -4
-5 -8 4 -12 0 -12 -11 1 -16 3 -16 19 4 10 12 21 19 25 16 3 -4 6 1 6 10 0 8
2 22 5 30 10 24 -22 15 -50 -15z"/>
<path d="M3555 1159 c-4 -6 -5 -12 -2 -15 2 -3 7 2 10 11 7 17 1 20 -8 4z"/>
<path d="M3655 1160 c3 -5 11 -10 16 -10 6 0 7 5 4 10 -3 6 -11 10 -16 10 -6
0 -7 -4 -4 -10z"/>
<path d="M2410 1147 c-22 -18 -54 -57 -47 -57 3 0 16 10 28 23 20 20 21 20 15
2 -6 -20 -6 -20 9 -1 8 11 15 26 15 33 0 16 -1 16 -20 0z"/>
<path d="M3708 1148 c5 -5 16 -8 23 -6 8 3 3 7 -10 11 -17 4 -21 3 -13 -5z"/>
<path d="M2303 1133 c-3 -10 -15 -28 -25 -39 -17 -19 -17 -22 -4 -27 9 -4 13
-13 10 -22 -9 -22 3 -18 16 5 8 15 8 20 -1 18 -21 -5 -20 19 1 25 14 4 19 12
18 31 -3 30 -6 33 -15 9z"/>
<path d="M1956 1128 c3 -4 9 -8 15 -8 5 0 9 4 9 8 0 5 -7 9 -15 9 -8 0 -12 -4
-9 -9z"/>
<path d="M2550 1129 c0 -5 5 -7 10 -4 6 3 10 8 10 11 0 2 -4 4 -10 4 -5 0 -10
-5 -10 -11z"/>
<path d="M1763 1116 c-3 -6 -3 -8 2 -4 4 4 13 4 19 -2 7 -5 18 -5 25 -1 9 6 5
10 -13 13 -15 3 -29 0 -33 -6z"/>
<path d="M2089 1128 c-5 -18 -6 -38 -1 -34 7 8 12 36 6 36 -2 0 -4 -1 -5 -2z"/>
<path d="M3606 1105 c9 -14 23 -25 30 -25 21 0 17 18 -6 25 -11 3 -20 11 -20
16 0 5 -5 9 -10 9 -6 0 -3 -11 6 -25z"/>
<path d="M1627 1113 c-4 -3 -7 -11 -7 -17 0 -6 5 -5 12 2 6 6 9 14 7 17 -3 3
-9 2 -12 -2z"/>
<path d="M2446 1108 c3 -9 2 -23 -2 -30 -9 -14 -14 -38 -9 -38 2 0 11 7 19 16
15 14 16 12 17 -28 0 -24 3 -36 6 -28 4 8 12 21 20 28 10 11 11 17 2 28 -6 8
-9 24 -6 36 6 21 5 21 -7 5 -13 -16 -14 -16 -29 5 -10 14 -14 16 -11 6z"/>
<path d="M2575 1110 c-9 -15 -18 -70 -11 -70 6 0 27 73 22 78 -2 2 -7 -2 -11
-8z"/>
<path d="M3680 1111 c0 -8 41 -23 47 -17 2 1 -8 8 -22 14 -14 6 -25 8 -25 3z"/>
<path d="M3740 1106 c0 -2 9 -6 20 -9 11 -3 18 -1 14 4 -5 9 -34 13 -34 5z"/>
<path d="M2119 1083 c-13 -16 -12 -17 4 -4 16 13 21 21 13 21 -2 0 -10 -8 -17
-17z"/>
<path d="M1637 1084 c-4 -4 -7 -14 -7 -23 0 -11 3 -12 11 -4 6 6 10 16 7 23
-2 6 -7 8 -11 4z"/>
<path d="M1904 1077 c-4 -12 -1 -25 9 -35 22 -22 27 -13 11 23 -11 26 -13 27
-20 12z"/>
<path d="M2362 1070 c-12 -12 -22 -24 -22 -27 0 -4 11 4 25 17 23 22 29 30 22
30 -2 0 -13 -9 -25 -20z"/>
<path d="M3828 1083 c7 -3 16 -2 19 1 4 3 -2 6 -13 5 -11 0 -14 -3 -6 -6z"/>
<path d="M2781 1075 c1 -19 18 -51 18 -35 0 8 -4 22 -9 30 -5 8 -9 11 -9 5z"/>
<path d="M1971 1054 c0 -11 3 -14 6 -6 3 7 2 16 -1 19 -3 4 -6 -2 -5 -13z"/>
<path d="M2393 1053 c-3 -10 -8 -21 -10 -25 -2 -5 1 -8 6 -8 6 0 11 7 11 16 0
8 5 12 10 9 6 -3 10 -2 10 4 0 19 -20 22 -27 4z"/>
<path d="M3711 1053 c-13 -14 -12 -17 2 -28 9 -7 17 -18 17 -26 0 -11 2 -11
10 1 14 21 12 30 -6 30 -11 0 -14 6 -9 20 8 24 5 25 -14 3z"/>
<path d="M2530 1050 c0 -5 5 -10 11 -10 5 0 7 5 4 10 -3 6 -8 10 -11 10 -2 0
-4 -4 -4 -10z"/>
<path d="M1652 1038 c-14 -14 -16 -28 -3 -28 9 0 24 30 18 36 -2 2 -9 -2 -15
-8z"/>
<path d="M2150 1035 c-7 -9 -11 -17 -9 -20 3 -2 10 5 17 15 14 24 10 26 -8 5z"/>
<path d="M2762 1030 c0 -14 2 -19 5 -12 2 6 2 18 0 25 -3 6 -5 1 -5 -13z"/>
<path d="M3780 1041 c0 -6 5 -13 10 -16 6 -3 10 1 10 9 0 9 -4 16 -10 16 -5 0
-10 -4 -10 -9z"/>
<path d="M2355 1030 c-3 -5 -1 -10 4 -10 6 0 11 5 11 10 0 6 -2 10 -4 10 -3 0
-8 -4 -11 -10z"/>
<path d="M2438 1029 c-10 -5 -18 -15 -18 -22 0 -7 4 -6 10 3 8 12 10 10 11
-10 1 -14 1 -28 0 -32 0 -5 4 -8 9 -8 6 0 10 18 10 40 0 22 -1 40 -2 40 -2 0
-11 -5 -20 -11z"/>
<path d="M3630 1023 c0 -9 3 -13 6 -10 4 3 15 2 25 -4 23 -12 25 -3 5 17 -19
19 -36 18 -36 -3z"/>
<path d="M3860 1036 c0 -2 7 -7 16 -10 8 -3 12 -2 9 4 -6 10 -25 14 -25 6z"/>
<path d="M3920 1036 c0 -3 9 -10 20 -16 11 -6 20 -8 20 -6 0 3 -9 10 -20 16
-11 6 -20 8 -20 6z"/>
<path d="M1960 1019 c0 -5 5 -7 10 -4 6 3 10 8 10 11 0 2 -4 4 -10 4 -5 0 -10
-5 -10 -11z"/>
<path d="M2300 1019 c0 -5 5 -7 10 -4 6 3 10 8 10 11 0 2 -4 4 -10 4 -5 0 -10
-5 -10 -11z"/>
<path d="M2575 1020 c-3 -5 -1 -10 4 -10 6 0 11 5 11 10 0 6 -2 10 -4 10 -3 0
-8 -4 -11 -10z"/>
<path d="M3815 1020 c3 -5 8 -10 11 -10 2 0 4 5 4 10 0 6 -5 10 -11 10 -5 0
-7 -4 -4 -10z"/>
<path d="M1575 1009 c-4 -6 -5 -12 -2 -15 2 -3 7 2 10 11 7 17 1 20 -8 4z"/>
<path d="M2181 996 c-8 -14 -11 -29 -8 -33 4 -3 7 1 7 10 0 8 5 17 12 19 6 2
9 10 7 17 -3 8 -10 3 -18 -13z"/>
<path d="M2643 1013 c4 -3 2 -12 -3 -18 -8 -9 -6 -14 5 -19 9 -3 13 -2 10 3
-3 5 -1 12 5 16 12 8 4 25 -12 25 -6 0 -8 -3 -5 -7z"/>
<path d="M2495 1000 c-3 -5 -1 -10 4 -10 6 0 11 5 11 10 0 6 -2 10 -4 10 -3 0
-8 -4 -11 -10z"/>
<path d="M1965 986 c-3 -9 -7 -23 -10 -31 -2 -8 -2 -15 1 -15 7 0 25 52 20 58
-3 3 -8 -3 -11 -12z"/>
<path d="M2226 983 c-6 -14 -5 -15 5 -6 7 7 10 15 7 18 -3 3 -9 -2 -12 -12z"/>
<path d="M2311 984 c0 -11 3 -14 6 -6 3 7 2 16 -1 19 -3 4 -6 -2 -5 -13z"/>
<path d="M2382 984 c-9 -18 -8 -25 8 -39 22 -20 24 -12 11 35 -7 25 -7 25 -19
4z"/>
<path d="M3632 975 c0 -16 2 -22 5 -12 2 9 2 23 0 30 -3 6 -5 -1 -5 -18z"/>
<path d="M2670 963 c0 -21 3 -24 9 -14 5 8 7 20 4 28 -8 21 -13 15 -13 -14z"/>
<path d="M1586 971 c-4 -7 -5 -15 -2 -18 9 -9 19 4 14 18 -4 11 -6 11 -12 0z"/>
<path d="M2515 971 c-3 -5 -1 -12 4 -15 5 -3 7 -16 5 -29 -4 -20 -3 -20 6 3 8
17 8 26 0 28 -5 2 -8 8 -4 13 3 5 3 9 0 9 -3 0 -7 -4 -11 -9z"/>
<path d="M2566 971 c-4 -5 -2 -12 3 -15 5 -4 12 -2 15 3 4 5 2 12 -3 15 -5 4
-12 2 -15 -3z"/>
<path d="M2867 967 c-3 -8 1 -14 8 -14 7 0 11 6 8 14 -3 7 -6 13 -8 13 -2 0
-5 -6 -8 -13z"/>
<path d="M3736 965 c-3 -9 3 -19 15 -26 29 -15 36 -2 12 21 -17 16 -22 17 -27
5z"/>
<path d="M2197 963 c-4 -3 -7 -11 -7 -17 0 -6 5 -5 12 2 6 6 9 14 7 17 -3 3
-9 2 -12 -2z"/>
<path d="M2260 954 c0 -16 -2 -17 -10 -4 -6 9 -10 10 -10 3 0 -19 20 -26 26
-8 4 9 4 19 0 22 -3 4 -6 -2 -6 -13z"/>
<path d="M3822 959 c2 -7 10 -15 17 -17 8 -3 12 1 9 9 -2 7 -10 15 -17 17 -8
3 -12 -1 -9 -9z"/>
<path d="M3879 957 c15 -19 41 -23 41 -7 0 6 -4 10 -9 10 -5 0 -18 3 -28 7
-16 6 -16 5 -4 -10z"/>
<path d="M3950 960 c0 -5 7 -10 16 -10 8 0 12 5 9 10 -3 6 -10 10 -16 10 -5 0
-9 -4 -9 -10z"/>
<path d="M1350 940 c-9 -16 -8 -18 5 -14 8 4 15 12 15 20 0 20 -7 17 -20 -6z"/>
<path d="M2620 951 c0 -5 7 -11 15 -15 9 -3 15 0 15 9 0 8 -7 15 -15 15 -8 0
-15 -4 -15 -9z"/>
<path d="M2756 945 c4 -8 8 -15 10 -15 2 0 4 7 4 15 0 8 -4 15 -10 15 -5 0 -7
-7 -4 -15z"/>
<path d="M3691 934 c13 -14 25 -20 27 -14 2 6 -4 18 -14 25 -31 24 -39 17 -13
-11z"/>
<path d="M1597 927 c-3 -8 -2 -19 3 -26 5 -10 9 -8 14 4 3 9 6 21 6 26 0 14
-17 11 -23 -4z"/>
<path d="M2736 913 c-6 -14 -5 -15 5 -6 7 7 10 15 7 18 -3 3 -9 -2 -12 -12z"/>
<path d="M2330 905 c-7 -9 -10 -18 -7 -21 3 -3 10 4 17 15 13 25 8 27 -10 6z"/>
<path d="M2536 904 c-4 -9 -4 -19 -1 -22 2 -3 7 3 11 12 4 9 4 19 1 22 -2 3
-7 -3 -11 -12z"/>
<path d="M1521 894 c0 -11 3 -14 6 -6 3 7 2 16 -1 19 -3 4 -6 -2 -5 -13z"/>
<path d="M2461 900 c0 -8 4 -22 9 -30 12 -18 12 -2 0 25 -6 13 -9 15 -9 5z"/>
<path d="M2780 898 c0 -7 5 -20 10 -28 8 -11 9 -9 8 13 -2 26 -18 40 -18 15z"/>
<path d="M3716 894 c-21 -21 -20 -29 7 -42 21 -10 21 -11 2 -12 -19 -1 -18 -2
3 -10 12 -5 22 -18 22 -29 0 -11 4 -22 9 -25 5 -4 7 3 4 14 -6 23 5 25 42 8
27 -12 32 -24 13 -30 -8 -3 -8 -9 0 -24 11 -18 11 -18 12 3 0 12 3 24 8 27 14
8 70 -22 87 -48 19 -28 38 -35 29 -11 -4 11 -2 13 9 9 27 -10 31 -74 5 -74 -5
0 -2 -7 6 -16 15 -14 21 -45 18 -86 -1 -10 2 -18 6 -18 4 0 8 -12 8 -26 1 -14
9 -33 17 -42 9 -10 22 -40 29 -67 7 -28 16 -52 19 -55 4 -3 12 -24 18 -48 7
-23 16 -40 21 -37 6 3 7 -1 4 -9 -3 -9 -11 -16 -16 -16 -6 0 -5 -7 3 -16 13
-16 15 -27 23 -104 2 -24 9 -46 15 -48 20 -7 11 -31 -16 -46 -27 -15 -27 -15
34 -16 l61 0 7 43 c4 23 12 48 17 55 12 14 19 112 9 112 -4 0 -8 16 -9 37 -2
20 -6 41 -9 46 -3 6 -1 7 5 3 22 -13 40 90 18 106 -6 4 -5 12 2 20 12 15 12
58 0 58 -4 0 -8 9 -8 20 0 13 5 18 15 14 16 -7 21 11 6 21 -5 3 -13 19 -16 36
-5 21 -10 27 -15 19 -6 -10 -17 -6 -43 14 -32 24 -53 54 -44 62 8 8 47 -10 44
-20 -2 -6 3 -16 12 -23 20 -15 31 -16 31 -3 0 6 -7 10 -15 10 -8 0 -15 5 -15
11 0 16 51 2 155 -41 50 -20 105 -43 123 -50 17 -7 32 -16 32 -21 0 -5 9 -9
20 -9 11 0 43 -9 72 -20 29 -11 67 -20 85 -20 17 0 34 -4 37 -9 5 -8 56 -22
56 -15 0 9 -61 32 -115 44 -33 7 -78 20 -100 30 -22 10 -66 28 -98 39 -32 12
-72 28 -88 36 -16 9 -30 15 -31 14 -2 -2 -14 4 -28 11 -14 8 -28 13 -32 12 -4
-1 -10 7 -13 18 -4 11 -15 20 -26 20 -11 0 -17 -5 -14 -10 4 -6 11 -8 16 -5 5
4 9 1 9 -4 0 -16 -19 -13 -68 9 -23 10 -45 19 -47 20 -41 5 -65 15 -65 27 0 7
-8 17 -17 20 -18 7 -38 26 -68 66 -9 12 -13 16 -9 8 5 -11 1 -12 -20 -7 -18 4
-25 3 -21 -4 3 -5 17 -10 30 -10 18 0 26 -7 31 -24 5 -21 34 -40 57 -37 4 1 7
-4 7 -10 0 -6 -6 -9 -12 -6 -7 2 -31 10 -53 17 -59 19 -76 25 -115 44 -33 16
-28 16 15 1 17 -6 17 -5 -3 9 -13 10 -30 15 -41 11 -22 -7 -64 32 -57 51 3 7
-4 20 -15 30 -19 17 -28 7 -10 -12 5 -5 12 -20 16 -34 7 -22 6 -23 -9 -11 -9
7 -16 10 -16 6 0 -4 -11 4 -24 18 -16 17 -22 33 -19 47 6 24 0 25 -21 4z m314
-190 c0 -8 -4 -12 -10 -9 -5 3 -10 10 -10 16 0 5 5 9 10 9 6 0 10 -7 10 -16z
m94 -65 c5 -24 14 -47 20 -51 6 -4 8 -8 4 -8 -3 0 4 -20 18 -45 17 -33 22 -56
19 -82 -5 -40 -28 -64 -34 -35 -2 9 -16 29 -32 43 -16 14 -29 33 -29 42 0 29
-11 46 -27 40 -13 -5 -13 -3 -4 16 12 22 6 46 -8 36 -9 -5 -6 39 4 54 3 7 0 8
-9 5 -17 -6 -21 11 -10 39 5 13 11 14 42 3 32 -11 38 -18 46 -57z m81 -69 c3
-5 1 -10 -4 -10 -6 0 -11 5 -11 10 0 6 2 10 4 10 3 0 8 -4 11 -10z m-131 -65
c3 -8 1 -15 -4 -15 -6 0 -10 7 -10 15 0 8 2 15 4 15 2 0 6 -7 10 -15z m50
-105 c12 -26 12 -30 0 -30 -8 0 -14 7 -14 15 0 8 -4 15 -9 15 -5 0 -11 7 -15
15 -11 29 22 15 38 -15z m6 -75 c0 -5 -5 -3 -10 5 -5 8 -10 20 -10 25 0 6 5 3
10 -5 5 -8 10 -19 10 -25z"/>
<path d="M4080 630 c0 -5 5 -10 11 -10 5 0 7 5 4 10 -3 6 -8 10 -11 10 -2 0
-4 -4 -4 -10z"/>
<path d="M4110 510 c0 -6 7 -10 15 -10 8 0 15 2 15 4 0 2 -7 6 -15 10 -8 3
-15 1 -15 -4z"/>
<path d="M1310 883 c0 -6 -2 -18 -5 -26 -10 -25 22 -15 38 12 15 25 14 26 -9
26 -13 0 -24 -5 -24 -12z"/>
<path d="M2570 875 c0 -14 4 -25 9 -25 4 0 6 11 3 25 -2 14 -6 25 -8 25 -2 0
-4 -11 -4 -25z"/>
<path d="M2711 884 c0 -11 3 -14 6 -6 3 7 2 16 -1 19 -3 4 -6 -2 -5 -13z"/>
<path d="M2900 880 c0 -11 4 -20 9 -20 5 0 7 9 4 20 -3 11 -7 20 -9 20 -2 0
-4 -9 -4 -20z"/>
<path d="M3850 893 c0 -6 8 -17 18 -24 16 -13 16 -13 2 6 -8 11 -16 22 -17 24
-2 2 -3 0 -3 -6z"/>
<path d="M3980 891 c0 -12 28 -22 35 -12 3 5 -2 12 -11 15 -21 8 -24 8 -24 -3z"/>
<path d="M4050 890 c0 -5 7 -10 16 -10 8 0 12 5 9 10 -3 6 -10 10 -16 10 -5 0
-9 -4 -9 -10z"/>
<path d="M4120 895 c0 -2 10 -10 23 -16 20 -11 21 -11 8 4 -13 16 -31 23 -31
12z"/>
<path d="M4197 889 c7 -7 15 -10 18 -7 3 3 -2 9 -12 12 -14 6 -15 5 -6 -5z"/>
<path d="M4250 896 c0 -3 9 -10 20 -16 11 -6 20 -8 20 -6 0 3 -9 10 -20 16
-11 6 -20 8 -20 6z"/>
<path d="M3910 880 c0 -5 10 -10 23 -10 18 0 19 2 7 10 -19 13 -30 13 -30 0z"/>
<path d="M1455 860 c-3 -5 -1 -10 4 -10 6 0 11 5 11 10 0 6 -2 10 -4 10 -3 0
-8 -4 -11 -10z"/>
<path d="M1527 855 c-4 -8 -2 -17 3 -20 6 -4 10 3 10 14 0 25 -6 27 -13 6z"/>
<path d="M4307 829 c7 -7 15 -10 18 -7 3 3 -2 9 -12 12 -14 6 -15 5 -6 -5z"/>
<path d="M1286 805 c-22 -33 -20 -42 4 -20 11 10 20 13 20 7 0 -6 -4 -14 -10
-17 -12 -7 -13 -25 -2 -25 5 0 13 15 19 34 13 44 -7 57 -31 21z"/>
<path d="M1545 809 c-6 -19 0 -38 9 -28 10 12 16 49 7 49 -5 0 -13 -9 -16 -21z"/>
<path d="M4094 815 c11 -8 27 -15 35 -15 11 0 10 4 -5 15 -10 8 -26 14 -34 14
-11 0 -10 -3 4 -14z"/>
<path d="M4146 821 c5 -5 20 -12 34 -15 l25 -7 -25 15 c-28 17 -50 21 -34 7z"/>
<path d="M4224 821 c3 -5 18 -11 33 -14 26 -5 26 -4 8 9 -21 15 -49 19 -41 5z"/>
<path d="M3710 794 c0 -8 5 -12 10 -9 6 4 8 11 5 16 -9 14 -15 11 -15 -7z"/>
<path d="M1466 785 c-3 -8 -1 -15 4 -15 6 0 10 7 10 15 0 8 -2 15 -4 15 -2 0
-6 -7 -10 -15z"/>
<path d="M2281 784 c0 -11 3 -14 6 -6 3 7 2 16 -1 19 -3 4 -6 -2 -5 -13z"/>
<path d="M3610 790 c0 -6 7 -10 15 -10 8 0 15 2 15 4 0 2 -7 6 -15 10 -8 3
-15 1 -15 -4z"/>
<path d="M4093 755 c0 -8 4 -15 8 -15 5 0 6 -7 3 -15 -4 -8 -1 -15 6 -15 6 0
8 5 5 10 -3 6 1 13 10 17 10 3 21 0 26 -8 5 -8 9 -9 9 -3 0 12 -42 44 -58 44
-5 0 -9 -7 -9 -15z"/>
<path d="M4270 760 c0 -15 21 -23 32 -12 6 6 2 11 -11 15 -12 3 -21 1 -21 -3z"/>
<path d="M4350 755 c7 -9 15 -13 17 -11 7 7 -7 26 -19 26 -6 0 -6 -6 2 -15z"/>
<path d="M4400 761 c0 -5 5 -13 10 -16 6 -3 10 -2 10 4 0 5 -4 13 -10 16 -5 3
-10 2 -10 -4z"/>
<path d="M2460 748 c0 -7 5 -20 10 -28 8 -11 9 -9 8 13 -2 26 -18 40 -18 15z"/>
<path d="M3748 753 c-20 -5 -25 -23 -6 -23 6 0 20 -7 30 -17 17 -15 18 -15 18
1 0 9 -7 19 -15 22 -8 4 -12 10 -9 15 3 5 4 8 2 8 -2 -1 -11 -3 -20 -6z"/>
<path d="M4470 756 c0 -2 7 -9 15 -16 9 -7 15 -8 15 -2 0 5 -7 12 -15 16 -8 3
-15 4 -15 2z"/>
<path d="M1474 739 c-3 -6 -1 -16 5 -22 8 -8 11 -5 11 11 0 24 -5 28 -16 11z"/>
<path d="M3858 714 c6 -11 19 -27 28 -35 16 -13 16 -12 6 7 -6 11 -19 27 -28
35 -16 13 -16 12 -6 -7z"/>
<path d="M1405 709 c-4 -6 -5 -12 -2 -15 2 -3 7 2 10 11 7 17 1 20 -8 4z"/>
<path d="M4260 709 c0 -5 5 -7 10 -4 6 3 10 8 10 11 0 2 -4 4 -10 4 -5 0 -10
-5 -10 -11z"/>
<path d="M1490 674 c0 -14 4 -23 10 -19 6 3 10 15 10 26 0 10 -4 19 -10 19 -5
0 -10 -12 -10 -26z"/>
<path d="M4457 679 c7 -7 15 -10 18 -7 3 3 -2 9 -12 12 -14 6 -15 5 -6 -5z"/>
<path d="M1413 665 c-3 -9 -3 -18 -1 -21 3 -3 8 4 11 16 6 23 -1 27 -10 5z"/>
<path d="M4518 673 c7 -3 16 -2 19 1 4 3 -2 6 -13 5 -11 0 -14 -3 -6 -6z"/>
<path d="M4588 673 c7 -3 16 -2 19 1 4 3 -2 6 -13 5 -11 0 -14 -3 -6 -6z"/>
<path d="M820 660 c-9 -6 -10 -10 -3 -10 6 0 15 5 18 10 8 12 4 12 -15 0z"/>
<path d="M3836 647 c3 -10 9 -15 12 -12 3 3 0 11 -7 18 -10 9 -11 8 -5 -6z"/>
<path d="M3940 625 c7 -8 17 -15 22 -15 6 0 5 7 -2 15 -7 8 -17 15 -22 15 -6
0 -5 -7 2 -15z"/>
<path d="M1427 624 c-4 -4 -7 -14 -7 -23 0 -11 3 -12 11 -4 6 6 10 16 7 23 -2
6 -7 8 -11 4z"/>
<path d="M3780 612 c6 -13 14 -21 18 -18 3 4 -2 14 -12 24 -18 16 -18 16 -6
-6z"/>
<path d="M4565 610 c3 -5 8 -10 11 -10 2 0 4 5 4 10 0 6 -5 10 -11 10 -5 0 -7
-4 -4 -10z"/>
<path d="M4635 610 c3 -5 11 -10 16 -10 6 0 7 5 4 10 -3 6 -11 10 -16 10 -6 0
-7 -4 -4 -10z"/>
<path d="M710 589 c0 -5 5 -7 10 -4 6 3 10 8 10 11 0 2 -4 4 -10 4 -5 0 -10
-5 -10 -11z"/>
<path d="M1351 584 c0 -11 3 -14 6 -6 3 7 2 16 -1 19 -3 4 -6 -2 -5 -13z"/>
<path d="M3910 572 c6 -13 14 -21 18 -18 3 4 -2 14 -12 24 -18 16 -18 16 -6
-6z"/>
<path d="M1437 566 c-4 -10 -5 -21 -2 -24 9 -9 17 6 13 25 -3 17 -4 17 -11 -1z"/>
<path d="M3790 546 c0 -31 6 -34 13 -6 3 11 1 23 -4 26 -5 3 -9 -6 -9 -20z"/>
<path d="M4400 563 c0 -6 8 -17 18 -24 16 -13 16 -13 2 6 -8 11 -16 22 -17 24
-2 2 -3 0 -3 -6z"/>
<path d="M1357 544 c-4 -4 -7 -14 -7 -23 0 -11 3 -12 11 -4 6 6 10 16 7 23 -2
6 -7 8 -11 4z"/>
<path d="M4688 543 c7 -3 16 -2 19 1 4 3 -2 6 -13 5 -11 0 -14 -3 -6 -6z"/>
<path d="M3860 531 c0 -5 5 -13 10 -16 6 -3 10 -2 10 4 0 5 -4 13 -10 16 -5 3
-10 2 -10 -4z"/>
<path d="M4620 530 c0 -5 5 -10 10 -10 6 0 10 5 10 10 0 6 -4 10 -10 10 -5 0
-10 -4 -10 -10z"/>
<path d="M605 520 c-3 -5 -1 -10 4 -10 6 0 11 5 11 10 0 6 -2 10 -4 10 -3 0
-8 -4 -11 -10z"/>
<path d="M660 508 c-12 -22 -12 -22 6 -6 10 10 15 20 12 24 -4 3 -12 -5 -18
-18z"/>
<path d="M1295 509 c-4 -6 -5 -12 -2 -15 2 -3 7 2 10 11 7 17 1 20 -8 4z"/>
<path d="M3780 492 c0 -15 32 -52 45 -52 3 0 5 15 5 33 0 21 -3 28 -9 19 -7
-11 -9 -11 -14 2 -9 22 -27 20 -27 -2z"/>
<path d="M1362 475 c-9 -20 -9 -23 3 -18 8 3 15 14 15 24 0 25 -5 24 -18 -6z"/>
<path d="M4482 470 c14 -22 24 -19 15 5 -4 8 -11 15 -17 15 -6 0 -6 -7 2 -20z"/>
<path d="M2796 470 c-17 -6 -18 -7 -3 -13 9 -3 19 -2 23 4 9 15 2 18 -20 9z"/>
<path d="M4607 469 c7 -7 15 -10 18 -7 3 3 -2 9 -12 12 -14 6 -15 5 -6 -5z"/>
<path d="M4790 476 c0 -2 8 -10 18 -17 15 -13 16 -12 3 4 -13 16 -21 21 -21
13z"/>
<path d="M1297 463 c-4 -3 -7 -11 -7 -17 0 -6 5 -5 12 2 6 6 9 14 7 17 -3 3
-9 2 -12 -2z"/>
<path d="M4526 462 c-3 -6 -1 -14 5 -17 15 -10 25 3 12 16 -7 7 -13 7 -17 1z"/>
<path d="M4683 463 c-21 -8 -15 -30 13 -52 47 -37 62 -20 20 22 -14 14 -22 28
-19 31 7 7 4 7 -14 -1z"/>
<path d="M3935 450 c3 -5 8 -10 11 -10 2 0 4 5 4 10 0 6 -5 10 -11 10 -5 0 -7
-4 -4 -10z"/>
<path d="M1388 444 c-5 -4 -8 -16 -8 -28 0 -14 3 -17 11 -9 6 6 9 19 7 28 -1
9 -6 13 -10 9z"/>
<path d="M3870 423 c0 -4 5 -15 10 -23 8 -13 10 -13 10 2 0 9 -4 20 -10 23 -5
3 -10 3 -10 -2z"/>
<path d="M4290 420 c0 -5 7 -10 16 -10 8 0 12 5 9 10 -3 6 -10 10 -16 10 -5 0
-9 -4 -9 -10z"/>
<path d="M4560 415 c7 -9 15 -13 17 -11 7 7 -7 26 -19 26 -6 0 -6 -6 2 -15z"/>
<path d="M4814 418 c-4 -7 -4 -10 1 -6 4 4 15 2 23 -5 12 -10 14 -9 11 2 -7
20 -26 25 -35 9z"/>
<path d="M1296 405 c-3 -8 -1 -15 4 -15 6 0 10 7 10 15 0 8 -2 15 -4 15 -2 0
-6 -7 -10 -15z"/>
<path d="M4422 400 c15 -23 28 -26 28 -6 0 8 -7 17 -16 20 -24 9 -25 8 -12
-14z"/>
<path d="M3820 400 c0 -5 5 -10 11 -10 5 0 7 5 4 10 -3 6 -8 10 -11 10 -2 0
-4 -4 -4 -10z"/>
<path d="M4000 391 c0 -6 4 -13 10 -16 6 -3 7 1 4 9 -7 18 -14 21 -14 7z"/>
<path d="M1236 375 c-9 -26 -7 -32 5 -12 6 10 9 21 6 23 -2 3 -7 -2 -11 -11z"/>
<path d="M3837 343 c6 -41 10 -49 19 -41 8 8 -7 78 -16 78 -5 0 -6 -17 -3 -37z"/>
<path d="M4640 374 c0 -3 10 -18 22 -32 12 -15 18 -19 15 -9 -4 10 -1 17 6 17
7 0 3 7 -7 15 -21 16 -36 19 -36 9z"/>
<path d="M4901 363 c2 -6 27 -28 54 -49 28 -20 44 -30 36 -20 -21 25 -95 82
-90 69z"/>
<path d="M3646 303 c-4 -31 -17 -89 -30 -129 -18 -54 -22 -81 -16 -101 8 -25
9 -26 15 -8 3 11 5 24 5 28 -2 13 33 36 44 30 4 -3 5 -32 2 -64 -7 -58 -7 -59
19 -59 29 0 33 14 8 29 -17 10 -17 12 1 26 16 12 17 17 6 30 -10 12 -10 18 0
30 10 12 10 19 2 27 -17 17 -15 28 6 28 9 0 13 4 7 8 -5 4 -11 16 -13 27 -3
20 -2 20 13 1 12 -16 15 -17 15 -4 0 9 12 19 27 23 30 7 73 49 73 70 0 25 -51
50 -106 52 -29 0 -57 4 -62 7 -5 3 -12 -20 -16 -51z"/>
<path d="M4362 349 c2 -7 10 -15 17 -17 8 -3 12 1 9 9 -2 7 -10 15 -17 17 -8
3 -12 -1 -9 -9z"/>
<path d="M456 328 c-9 -12 -14 -24 -11 -26 6 -7 24 8 35 29 15 27 -5 25 -24
-3z"/>
<path d="M3950 342 c0 -5 7 -17 15 -28 15 -19 20 -8 9 20 -6 17 -24 22 -24 8z"/>
<path d="M4750 332 c0 -5 7 -13 16 -16 10 -4 14 -1 12 6 -5 15 -28 23 -28 10z"/>
<path d="M4590 324 c0 -3 14 -26 30 -51 17 -24 30 -53 30 -63 0 -10 6 -23 13
-27 26 -17 68 -76 63 -90 -11 -27 26 -58 62 -55 18 2 32 -1 32 -7 0 -6 5 -11
11 -11 8 0 8 5 -1 15 -7 8 -25 15 -41 15 -18 0 -29 5 -29 14 0 8 -8 17 -17 19
-11 3 -7 5 10 6 24 1 27 5 27 37 0 19 -7 42 -15 50 -8 9 -15 24 -15 35 0 11
-4 18 -9 14 -5 -3 -12 -1 -16 5 -3 5 -1 10 4 10 19 0 12 26 -14 50 -25 23 -25
23 -25 2 0 -11 5 -24 10 -27 6 -3 10 -10 10 -16 0 -5 -9 -4 -19 3 -11 7 -19
15 -18 18 3 9 -59 60 -72 60 -6 0 -11 -3 -11 -6z"/>
<path d="M417 303 c-4 -3 -7 -11 -7 -17 0 -6 5 -5 12 2 6 6 9 14 7 17 -3 3 -9
2 -12 -2z"/>
<path d="M4320 291 c0 -5 7 -14 15 -21 12 -10 15 -10 15 3 0 8 -7 17 -15 21
-8 3 -15 2 -15 -3z"/>
<path d="M4446 292 c-2 -4 6 -18 20 -31 22 -21 24 -21 24 -4 0 19 -36 48 -44
35z"/>
<path d="M3901 274 c0 -11 3 -14 6 -6 3 7 2 16 -1 19 -3 4 -6 -2 -5 -13z"/>
<path d="M4854 266 c10 -8 15 -19 11 -25 -3 -6 -1 -11 4 -11 20 0 11 29 -11
40 -22 10 -22 10 -4 -4z"/>
<path d="M360 260 c0 -5 5 -10 10 -10 6 0 10 5 10 10 0 6 -4 10 -10 10 -5 0
-10 -4 -10 -10z"/>
<path d="M403 253 c-13 -8 -23 -20 -23 -26 0 -5 -8 -16 -17 -24 -17 -13 -16
-13 6 -7 17 4 22 3 16 -6 -5 -8 -4 -11 2 -7 14 9 55 87 45 86 -4 0 -17 -7 -29
-16z"/>
<path d="M4280 231 c16 -31 32 -36 18 -7 -6 14 -15 26 -20 26 -5 0 -4 -9 2
-19z"/>
<path d="M3831 223 c7 -12 15 -20 18 -17 3 2 -3 12 -13 22 -17 16 -18 16 -5
-5z"/>
<path d="M4403 201 c8 -21 15 -27 21 -21 12 12 -2 41 -22 48 -8 2 -8 -5 1 -27z"/>
<path d="M3976 207 c3 -10 9 -15 12 -12 3 3 0 11 -7 18 -10 9 -11 8 -5 -6z"/>
<path d="M4486 204 c-3 -8 -10 -12 -16 -9 -14 9 -12 -8 4 -30 21 -29 9 -57
-25 -53 -33 3 -36 -8 -10 -38 24 -27 15 -41 -24 -38 -16 1 -33 0 -37 -3 -13
-7 4 -33 23 -33 11 0 16 5 13 13 -4 10 3 12 25 9 17 -2 28 -8 25 -13 -3 -5 7
-8 23 -8 16 1 21 3 11 6 -9 2 -15 10 -12 18 3 7 1 16 -4 19 -12 7 -4 46 9 46
5 0 12 -12 15 -27 4 -16 14 -36 22 -45 19 -22 52 -24 52 -3 0 8 -4 15 -10 15
-5 0 -10 6 -10 14 0 8 -10 16 -22 18 -12 2 -23 9 -26 16 -2 7 2 10 12 6 21 -8
20 5 -1 23 -10 8 -12 12 -5 8 6 -3 12 -1 12 4 0 6 -5 11 -10 11 -6 0 -8 11 -4
25 5 19 3 25 -7 23 -9 -2 -13 5 -11 20 4 25 -3 29 -12 6z"/>
<path d="M3862 185 c0 -16 2 -22 5 -12 2 9 2 23 0 30 -3 6 -5 -1 -5 -18z"/>
<path d="M4001 174 c0 -11 3 -14 6 -6 3 7 2 16 -1 19 -3 4 -6 -2 -5 -13z"/>
<path d="M3781 140 c13 -16 25 -28 27 -25 9 9 -21 55 -35 55 -10 0 -7 -9 8
-30z"/>
<path d="M4880 164 c0 -11 35 -49 48 -51 19 -4 14 14 -10 37 -21 20 -38 26
-38 14z"/>
<path d="M3910 152 c0 -12 19 -26 26 -19 2 2 -2 10 -11 17 -9 8 -15 8 -15 2z"/>
<path d="M4077 152 c-12 -2 -16 -9 -13 -19 3 -8 9 -26 12 -39 8 -33 20 -30 28
7 7 37 -3 56 -27 51z"/>
<path d="M4357 145 c3 -8 9 -12 14 -9 12 7 11 11 -5 17 -10 4 -13 1 -9 -8z"/>
<path d="M4791 134 c0 -11 3 -14 6 -6 3 7 2 16 -1 19 -3 4 -6 -2 -5 -13z"/>
<path d="M4565 130 c3 -5 8 -10 11 -10 2 0 4 5 4 10 0 6 -5 10 -11 10 -5 0 -7
-4 -4 -10z"/>
<path d="M597 113 c-4 -3 -7 -11 -7 -17 0 -6 5 -5 12 2 6 6 9 14 7 17 -3 3 -9
2 -12 -2z"/>
<path d="M3922 104 c-11 -12 -10 -17 2 -30 9 -8 16 -29 16 -45 0 -27 3 -29 35
-29 26 0 35 4 35 16 0 12 -7 15 -25 12 -20 -4 -23 -3 -14 8 9 11 7 15 -5 20
-9 3 -16 17 -16 29 0 30 -11 37 -28 19z"/>
<path d="M4590 100 c0 -5 5 -10 11 -10 5 0 7 5 4 10 -3 6 -8 10 -11 10 -2 0
-4 -4 -4 -10z"/>
<path d="M4004 84 c3 -9 6 -19 6 -23 0 -4 9 -7 20 -7 19 0 19 1 -2 23 -25 27
-32 29 -24 7z"/>
<path d="M4316 87 c3 -10 9 -15 12 -12 3 3 0 11 -7 18 -10 9 -11 8 -5 -6z"/>
<path d="M4920 95 c0 -2 10 -10 23 -16 20 -11 21 -11 8 4 -13 16 -31 23 -31
12z"/>
<path d="M3720 80 c0 -5 5 -10 10 -10 6 0 10 5 10 10 0 6 -4 10 -10 10 -5 0
-10 -4 -10 -10z"/>
<path d="M3740 65 c-8 -9 -8 -15 -2 -15 12 0 26 19 19 26 -2 2 -10 -2 -17 -11z"/>
<path d="M105 52 c-8 -23 0 -24 18 -4 14 15 15 19 2 19 -8 0 -17 -7 -20 -15z"/>
<path d="M4570 50 c0 -5 7 -7 15 -4 8 4 15 8 15 10 0 2 -7 4 -15 4 -8 0 -15
-4 -15 -10z"/>
<path d="M4240 45 c0 -9 42 -47 46 -42 3 3 -2 11 -10 20 -8 8 -12 17 -9 21 4
3 -1 6 -10 6 -9 0 -17 -2 -17 -5z"/>
<path d="M4956 34 c16 -13 16 -15 2 -10 -22 7 -24 -12 -3 -20 21 -8 47 20 32
35 -6 6 -20 11 -31 11 -20 0 -20 0 0 -16z"/>
<path d="M50 15 c-10 -13 -9 -15 9 -15 12 0 21 6 21 15 0 8 -4 15 -9 15 -5 0
-14 -7 -21 -15z"/>
<path d="M135 19 c-12 -18 3 -22 20 -5 14 14 14 16 1 16 -8 0 -18 -5 -21 -11z"/>
<path d="M4031 14 c0 -11 3 -14 6 -6 3 7 2 16 -1 19 -3 4 -6 -2 -5 -13z"/>
<path d="M4590 10 c0 -5 5 -10 11 -10 5 0 7 5 4 10 -3 6 -8 10 -11 10 -2 0 -4
-4 -4 -10z"/>
</g>
</svg>
